<svg width="823" height="214" viewBox="0 0 823 214" fill="none" xmlns="http://www.w3.org/2000/svg">
<path d="M16.3022 119.718C15.9314 121.96 19.0711 123.266 19.0107 125.947C18.9503 128.628 17.4578 129.228 18.2078 132.189C18.9577 135.15 18.3034 138.3 19.1174 139.554C19.9315 140.808 18.0306 141.207 18.7114 143.051C19.3921 144.895 19.2956 146.081 18.8941 147.828C18.4925 149.574 18.6433 154.754 19.6584 156.509C20.6735 158.265 19.6269 160.561 19.4819 161.878C19.4367 162.288 19.344 162.618 19.2362 162.877C19.1904 162.986 19.0726 163.049 18.9501 163.066C18.95 163.066 18.9499 163.066 18.9498 163.066C18.7973 163.086 18.6376 163.034 18.6009 162.906C18.4227 162.285 18.0493 161.373 17.3467 160.329C16.0365 158.384 17.1458 158.003 16.2394 155.261C15.333 152.518 14.0472 150.97 14.2895 147.568C14.5318 144.166 11.5629 143.789 12.5626 138.899C13.5623 134.008 10.4979 133.918 9.47614 129.314C8.45444 124.711 9.32252 118.612 8.80978 115.823C8.29704 113.034 7.44337 109.311 7.30672 105.279C7.17006 101.246 5.5139 96.4674 5.6323 91.9803C5.7507 87.4933 5.81165 81.1638 6.02539 78.2148C6.23913 75.2659 6.28036 74.5486 5.54579 71.836C5.12354 70.2768 5.02883 68.0636 5.55361 66.1133C5.81771 65.1318 6.38677 65.27 6.77074 66.1711C7.33221 67.4886 7.22966 68.6456 7.99993 69.2601C9.53933 70.488 10.1377 71.0174 9.58929 72.901C9.04099 74.7844 10.9399 75.3833 10.8729 76.4474C10.8058 77.5116 9.74964 77.6355 11.2668 82.7979C12.784 87.9602 13.3778 90.8221 13.8398 92.7921C14.3018 94.7622 13.9447 99.0525 14.7101 102.261C15.4754 105.47 16.0576 112.124 16.9548 114.718C17.8519 117.312 16.673 117.475 16.3022 119.718Z" fill="black"/>
<path d="M47.1098 172.414C45.4585 171.684 44.0221 174.568 41.9939 174.072C39.9656 173.577 39.7209 172.007 37.3655 172.265C35.0102 172.523 32.7095 171.365 31.6416 171.964C30.5738 172.563 30.5402 170.623 29.0427 170.994C27.5453 171.366 26.658 171.078 25.3881 170.398C24.1181 169.717 20.1614 169.023 18.6844 169.739C17.2074 170.455 15.6105 169.049 14.6309 168.691C14.3258 168.58 14.0879 168.435 13.907 168.287C13.8304 168.224 13.7988 168.097 13.8037 167.974C13.8037 167.974 13.8037 167.973 13.8037 167.973C13.8098 167.82 13.8723 167.671 13.9746 167.655C14.4711 167.58 15.2174 167.361 16.1095 166.837C17.7728 165.862 17.9048 167.018 20.1165 166.57C22.3282 166.122 23.6865 165.106 26.2368 165.898C28.787 166.691 29.4931 163.823 33.0669 165.605C36.6406 167.387 37.1428 164.379 40.7844 164.12C44.4261 163.861 48.937 165.71 51.1281 165.658C53.3192 165.606 56.2686 165.37 59.3513 165.891C62.434 166.412 66.2987 165.556 69.6908 166.403C73.0828 167.25 77.8827 168.339 80.0928 169.03C82.3028 169.721 82.8419 169.878 85.0066 169.595C86.2508 169.432 87.9456 169.699 89.353 170.534C90.0613 170.954 89.8758 171.493 89.137 171.725C88.0566 172.064 87.1922 171.775 86.6164 172.435C85.4658 173.753 84.979 174.257 83.6257 173.41C82.2724 172.563 81.5488 174.338 80.7499 174.099C79.9509 173.86 80.0061 172.798 75.8698 173.454C71.7333 174.111 69.4752 174.231 67.9132 174.366C66.3513 174.501 63.1424 173.451 60.5963 173.684C58.0502 173.917 52.9128 173.409 50.8155 173.871C48.7183 174.334 48.7609 173.145 47.1098 172.414Z" fill="black"/>
<path d="M110.05 151.538C108.755 152.148 110.496 154.717 109.233 155.698C107.969 156.679 106.587 155.923 105.799 157.546C105.011 159.168 103.092 159.936 103.128 160.951C103.163 161.966 101.568 160.863 101.236 162.015C100.904 163.166 100.294 163.555 99.2013 163.955C98.1088 164.355 95.8665 166.427 95.8237 167.766C95.7809 169.104 93.9586 169.288 93.2524 169.694C93.0324 169.82 92.8133 169.885 92.6158 169.912C92.532 169.924 92.4155 169.87 92.317 169.796C92.3169 169.796 92.3168 169.795 92.3168 169.795C92.1941 169.703 92.0992 169.577 92.13 169.504C92.2794 169.15 92.4166 168.556 92.3683 167.695C92.2782 166.09 93.276 166.677 93.8484 165.034C94.4208 163.392 94.1684 161.954 95.8949 160.818C97.6213 159.682 95.5845 157.58 98.5507 156.377C101.517 155.174 99.279 153.117 100.611 150.69C101.944 148.263 105.362 146.512 106.248 145.112C107.134 143.711 108.191 141.73 109.922 140.104C111.654 138.478 112.594 135.565 114.721 133.934C116.849 132.304 119.771 129.933 121.27 128.951C122.769 127.969 123.126 127.723 123.813 126.205C124.207 125.333 125.143 124.427 126.42 124.031C127.062 123.831 127.422 124.259 127.299 124.856C127.117 125.728 126.515 126.101 126.809 126.843C127.395 128.326 127.6 128.923 126.336 129.278C125.072 129.634 126.212 131.115 125.679 131.476C125.145 131.837 124.303 131.187 123.085 134.155C121.867 137.122 121.008 138.604 120.456 139.659C119.905 140.714 117.689 142.112 116.8 143.839C115.91 145.567 113.319 148.485 112.807 150.065C112.296 151.645 111.345 150.929 110.05 151.538Z" fill="black"/>
<path d="M161.082 129.979C159.177 129.27 157.597 132.173 155.266 131.704C152.935 131.235 152.621 129.668 149.932 129.957C147.244 130.246 144.586 129.119 143.378 129.732C142.17 130.345 142.089 128.405 140.384 128.796C138.679 129.188 137.658 128.911 136.19 128.248C134.723 127.584 130.181 126.942 128.508 127.677C126.834 128.412 124.976 127.027 123.848 126.683C123.496 126.576 123.221 126.434 123.011 126.288C122.922 126.226 122.883 126.1 122.886 125.976C122.886 125.976 122.886 125.976 122.886 125.976C122.889 125.822 122.957 125.672 123.074 125.656C123.64 125.574 124.489 125.345 125.498 124.81C127.379 123.812 127.555 124.966 130.075 124.489C132.595 124.012 134.127 122.978 137.061 123.737C139.996 124.496 140.74 121.62 144.868 123.354C148.995 125.089 149.503 122.074 153.663 121.768C157.822 121.461 163.023 123.25 165.528 123.169C168.034 123.088 171.402 122.813 174.94 123.294C178.477 123.775 182.879 122.868 186.778 123.67C190.677 124.472 196.191 125.499 198.735 126.16C201.278 126.822 201.898 126.972 204.368 126.66C205.788 126.481 207.732 126.726 209.36 127.542C210.18 127.953 209.98 128.494 209.14 128.736C207.911 129.09 206.916 128.812 206.272 129.479C204.985 130.813 204.44 131.323 202.873 130.494C201.306 129.664 200.518 131.449 199.599 131.221C198.679 130.992 198.719 129.929 194.002 130.64C189.285 131.351 186.705 131.501 184.921 131.657C183.137 131.812 179.444 130.804 176.536 131.071C173.629 131.337 167.741 130.896 165.353 131.387C162.964 131.877 162.986 130.688 161.082 129.979Z" fill="black"/>
<path d="M226.367 163.417C225.763 161.249 222.376 161.415 221.307 158.987C220.239 156.558 221.338 155.385 219.419 153.05C217.501 150.716 216.773 147.614 215.511 146.837C214.249 146.059 215.802 144.893 214.414 143.53C213.025 142.167 212.616 141.063 212.248 139.327C211.879 137.59 209.573 133.012 207.92 131.871C206.266 130.73 206.251 128.226 205.83 126.984C205.7 126.597 205.645 126.262 205.634 125.984C205.63 125.867 205.71 125.76 205.814 125.693C205.814 125.693 205.814 125.693 205.814 125.693C205.944 125.61 206.11 125.589 206.197 125.688C206.618 126.168 207.338 126.827 208.411 127.463C210.411 128.648 209.567 129.462 211.535 131.534C213.504 133.606 215.316 134.446 216.522 137.598C217.727 140.751 220.571 139.824 221.715 144.633C222.859 149.441 225.669 148.217 228.521 151.908C231.374 155.598 233.144 161.435 234.776 163.716C236.408 165.997 238.739 168.971 240.552 172.526C242.365 176.082 245.865 179.66 247.637 183.732C249.41 187.804 252.006 193.503 253.048 196.237C254.09 198.971 254.353 199.631 256.154 201.75C257.189 202.967 258.201 204.911 258.544 206.882C258.716 207.874 258.143 207.993 257.419 207.349C256.359 206.407 255.967 205.326 255.013 205.104C253.106 204.659 252.343 204.439 252.05 202.517C251.757 200.596 249.788 200.868 249.403 199.886C249.018 198.903 249.922 198.342 246.387 194.362C242.852 190.381 241.116 188.069 239.873 186.5C238.63 184.931 237.156 180.934 235.119 178.384C233.083 175.834 229.769 170.118 227.871 168.175C225.973 166.233 226.971 165.584 226.367 163.417Z" fill="black"/>
<path d="M421.549 212.101C413.492 211.436 407.15 214.375 397.331 213.96C387.511 213.544 386.041 211.985 374.795 212.336C363.55 212.687 352.298 211.62 347.291 212.261C342.284 212.902 341.756 210.965 334.645 211.395C327.536 211.825 323.226 211.572 317.008 210.943C310.789 210.313 291.685 209.775 284.738 210.549C277.791 211.322 269.868 209.98 265.103 209.662C263.618 209.563 262.45 209.427 261.555 209.286C261.175 209.226 261 209.101 261 208.977C261 208.977 261 208.977 261 208.977C261 208.823 261.272 208.672 261.759 208.653C264.126 208.558 267.663 208.309 271.842 207.751C279.633 206.71 280.484 207.86 291.005 207.326C301.526 206.791 307.847 205.722 320.226 206.413C332.605 207.104 335.448 204.212 352.922 205.851C370.396 207.49 372.235 204.465 389.648 204.063C407.061 203.66 429.041 205.33 439.538 205.191C450.035 205.053 464.133 204.7 479.014 205.1C493.895 205.499 512.264 204.491 528.69 205.203C545.116 205.916 568.338 206.816 579.067 207.418C589.795 208.021 592.41 208.157 602.736 207.789C608.672 207.577 616.849 207.777 623.756 208.556C627.232 208.947 626.444 209.493 622.945 209.754C617.829 210.136 613.629 209.881 610.993 210.563C605.725 211.926 603.487 212.449 596.837 211.656C590.187 210.862 587.054 212.665 583.177 212.458C579.301 212.25 579.364 211.187 559.654 212.006C539.944 212.825 529.138 213.034 521.674 213.231C514.21 213.427 498.624 212.505 486.459 212.838C474.294 213.171 449.563 212.866 439.594 213.411C429.625 213.956 429.605 212.766 421.549 212.101Z" fill="black"/>
<path d="M649.212 177.813C647.736 179.05 649.577 181.746 648.121 183.45C646.665 185.154 645.149 184.665 644.198 187.028C643.247 189.39 641.067 191.049 641.064 192.342C641.061 193.635 639.321 192.774 638.901 194.372C638.481 195.969 637.781 196.682 636.541 197.579C635.3 198.476 632.702 201.926 632.598 203.662C632.494 205.399 630.445 206.273 629.637 207.042C629.386 207.281 629.138 207.441 628.915 207.545C628.821 207.589 628.693 207.561 628.586 207.499C628.586 207.499 628.585 207.499 628.585 207.499C628.452 207.423 628.351 207.294 628.389 207.19C628.571 206.682 628.749 205.87 628.732 204.78C628.698 202.746 629.791 203.152 630.501 200.839C631.211 198.526 630.989 196.764 632.971 194.699C634.952 192.634 632.759 190.642 636.132 188.057C639.504 185.473 637.084 183.61 638.679 180.022C640.273 176.433 644.174 172.986 645.225 170.875C646.277 168.764 647.544 165.845 649.551 163.148C651.558 160.451 652.734 156.375 655.185 153.534C657.636 150.692 661.008 146.621 662.728 144.833C664.448 143.046 664.858 142.604 665.691 140.412C666.169 139.151 667.255 137.66 668.701 136.703C669.429 136.222 669.815 136.646 669.651 137.457C669.411 138.643 668.721 139.333 669.018 140.185C669.613 141.888 669.817 142.584 668.386 143.483C666.956 144.383 668.17 145.889 667.558 146.54C666.945 147.191 666.03 146.65 664.541 150.893C663.052 155.136 662.028 157.342 661.365 158.892C660.703 160.443 658.163 163.016 657.094 165.549C656.026 168.082 653.001 172.742 652.362 174.953C651.722 177.165 650.687 176.576 649.212 177.813Z" fill="black"/>
<path d="M701.948 142.101C700.094 141.436 698.635 144.375 696.375 143.96C694.115 143.544 693.776 141.985 691.188 142.336C688.601 142.687 686.011 141.62 684.859 142.261C683.706 142.902 683.585 140.965 681.949 141.395C680.312 141.825 679.321 141.572 677.89 140.943C676.458 140.313 672.062 139.776 670.463 140.549C668.864 141.322 667.041 139.98 665.944 139.662C665.603 139.563 665.334 139.427 665.128 139.286C665.04 139.226 665 139.101 665 138.977C665 138.977 665 138.977 665 138.977C665 138.823 665.063 138.672 665.175 138.653C665.719 138.558 666.533 138.309 667.495 137.751C669.288 136.71 669.484 137.86 671.905 137.326C674.327 136.791 675.781 135.722 678.63 136.413C681.479 137.104 682.133 134.212 686.155 135.851C690.176 137.49 690.599 134.465 694.607 134.063C698.614 133.66 703.673 135.33 706.088 135.191C708.504 135.053 711.749 134.7 715.173 135.1C718.598 135.499 722.825 134.491 726.605 135.203C730.386 135.916 735.73 136.816 738.199 137.418C740.668 138.021 741.27 138.157 743.646 137.789C745.012 137.577 746.894 137.777 748.483 138.556C749.283 138.947 749.102 139.493 748.297 139.754C747.12 140.136 746.153 139.881 745.546 140.563C744.334 141.926 743.819 142.449 742.288 141.656C740.758 140.862 740.037 142.665 739.145 142.458C738.253 142.25 738.267 141.187 733.731 142.006C729.195 142.825 726.709 143.034 724.991 143.231C723.273 143.428 719.686 142.505 716.886 142.838C714.087 143.171 708.395 142.866 706.101 143.411C703.807 143.956 703.802 142.766 701.948 142.101Z" fill="black"/>
<path d="M755.658 156.818C755.532 155.52 752.639 156.543 752.168 155.195C751.696 153.847 752.833 152.761 751.626 151.705C750.418 150.649 750.354 148.755 749.426 148.571C748.497 148.387 750.017 147.184 749.085 146.639C748.154 146.095 748.003 145.461 748 144.391C747.997 143.321 746.861 140.857 745.666 140.534C744.471 140.21 744.902 138.528 744.768 137.804C744.726 137.579 744.739 137.368 744.78 137.184C744.797 137.106 744.883 137.012 744.983 136.939C744.983 136.939 744.983 136.939 744.983 136.939C745.107 136.848 745.252 136.789 745.308 136.833C745.578 137.043 746.07 137.293 746.864 137.433C748.344 137.694 747.486 138.468 748.782 139.334C750.079 140.2 751.461 140.279 751.92 142.078C752.38 143.876 754.948 142.488 755.061 145.419C755.175 148.349 757.767 146.769 759.523 148.488C761.279 150.206 761.739 153.661 762.713 154.758C763.687 155.856 765.131 157.231 766.031 159.139C766.932 161.046 769.256 162.514 770.031 164.78C770.806 167.046 771.988 170.186 772.384 171.747C772.779 173.308 772.884 173.682 774.03 174.624C774.689 175.166 775.2 176.202 775.139 177.438C775.108 178.06 774.603 178.294 774.105 178.055C773.376 177.706 773.237 177.083 772.47 177.19C770.937 177.403 770.331 177.46 770.425 176.245C770.518 175.029 768.806 175.742 768.655 175.184C768.504 174.626 769.367 174.005 767.086 172.275C764.805 170.545 763.748 169.454 762.976 168.732C762.203 168.01 761.667 165.714 760.399 164.544C759.13 163.375 757.344 160.416 756.084 159.618C754.825 158.821 755.783 158.116 755.658 156.818Z" fill="black"/>
<path d="M770.936 186.445C771.599 185.87 768.659 185.428 769.072 184.729C769.485 184.029 771.044 183.919 770.69 183.12C770.337 182.322 771.401 181.518 770.759 181.164C770.117 180.81 772.054 180.766 771.622 180.262C771.19 179.758 771.442 179.45 772.07 179.006C772.699 178.562 773.232 177.201 772.457 176.709C771.682 176.218 773.022 175.65 773.339 175.31C773.438 175.204 773.573 175.121 773.714 175.056C773.774 175.029 773.899 175.016 774.023 175.016C774.023 175.016 774.023 175.016 774.023 175.016C774.177 175.016 774.328 175.034 774.348 175.069C774.443 175.237 774.692 175.488 775.251 175.783C776.294 176.334 775.144 176.398 775.681 177.145C776.218 177.891 777.289 178.337 776.6 179.22C775.912 180.103 778.806 180.296 777.17 181.544C775.535 182.792 778.561 182.913 778.967 184.15C779.373 185.387 777.709 186.956 777.85 187.702C777.991 188.448 778.346 189.45 777.951 190.509C777.555 191.569 778.567 192.872 777.858 194.043C777.15 195.214 776.255 196.868 775.655 197.633C775.055 198.398 774.919 198.585 775.29 199.318C775.503 199.739 775.305 200.321 774.528 200.815C774.137 201.064 773.591 201.009 773.329 200.761C772.946 200.399 773.2 200.099 772.518 199.914C771.154 199.544 770.63 199.386 771.422 198.911C772.214 198.435 770.41 198.218 770.617 197.942C770.824 197.665 771.887 197.667 771.063 196.267C770.239 194.868 770.028 194.1 769.829 193.57C769.631 193.04 770.55 191.928 770.214 191.064C769.878 190.2 770.178 188.44 769.63 187.733C769.083 187.025 770.273 187.02 770.936 186.445Z" fill="black"/>
<path d="M792.369 206.201C791.65 205.582 791.308 208.549 790.457 208.188C789.606 207.827 789.382 206.28 788.461 206.691C787.54 207.102 786.526 206.1 786.148 206.766C785.769 207.433 785.599 205.503 785.03 205.971C784.461 206.439 784.083 206.21 783.521 205.616C782.958 205.022 781.32 204.59 780.787 205.4C780.254 206.209 779.502 204.914 779.082 204.622C778.951 204.531 778.844 204.402 778.759 204.266C778.724 204.209 778.701 204.085 778.693 203.961C778.693 203.961 778.693 203.961 778.693 203.961C778.683 203.807 778.696 203.655 778.735 203.633C778.928 203.526 779.209 203.258 779.523 202.678C780.109 201.597 780.255 202.74 781.103 202.149C781.952 201.558 782.413 200.457 783.496 201.079C784.58 201.701 784.631 198.799 786.204 200.339C787.777 201.88 787.734 198.851 789.17 198.354C790.605 197.857 792.558 199.403 793.43 199.208C794.302 199.012 795.462 198.583 796.736 198.9C798.011 199.218 799.487 198.112 800.912 198.733C802.337 199.354 804.344 200.125 805.283 200.668C806.223 201.211 806.451 201.332 807.294 200.908C807.778 200.664 808.477 200.819 809.108 201.558C809.425 201.93 809.394 202.479 809.117 202.759C808.713 203.168 808.344 202.936 808.167 203.631C807.814 205.02 807.66 205.554 807.05 204.799C806.44 204.043 806.295 205.859 805.956 205.674C805.617 205.488 805.553 204.426 803.952 205.351C802.352 206.277 801.458 206.544 800.845 206.781C800.231 207.018 798.863 206.183 797.864 206.582C796.865 206.98 794.77 206.811 793.968 207.409C793.167 208.008 793.088 206.821 792.369 206.201Z" fill="black"/>
<path d="M817.912 191.432C817.129 191.703 819.811 192.965 819.233 193.414C818.654 193.864 817.141 193.478 817.266 194.243C817.39 195.008 816.165 195.344 816.682 195.831C817.199 196.319 815.343 195.763 815.621 196.31C815.898 196.857 815.577 197.033 814.861 197.206C814.146 197.38 813.277 198.336 813.885 198.977C814.493 199.619 813.066 199.676 812.674 199.859C812.552 199.916 812.401 199.943 812.25 199.953C812.186 199.957 812.063 199.93 811.945 199.892C811.945 199.892 811.945 199.892 811.945 199.892C811.799 199.845 811.659 199.784 811.65 199.749C811.604 199.582 811.433 199.299 810.979 198.885C810.132 198.114 811.244 198.412 810.93 197.634C810.616 196.855 809.715 196.161 810.605 195.645C811.494 195.13 808.79 194.087 810.678 193.56C812.566 193.032 809.717 192.008 809.658 190.866C809.599 189.724 811.599 188.942 811.662 188.285C811.726 187.628 811.653 186.695 812.31 185.945C812.968 185.194 812.35 183.812 813.335 183.066C814.319 182.319 815.609 181.231 816.384 180.785C817.158 180.339 817.336 180.227 817.178 179.511C817.086 179.099 817.429 178.68 818.3 178.512C818.738 178.427 819.243 178.638 819.427 178.922C819.695 179.338 819.374 179.506 819.975 179.868C821.176 180.589 821.632 180.879 820.753 181.028C819.873 181.177 821.532 181.907 821.262 182.071C820.992 182.235 819.98 181.909 820.394 183.312C820.808 184.715 820.806 185.412 820.854 185.909C820.902 186.406 819.733 187.039 819.823 187.853C819.914 188.666 819.163 190.023 819.497 190.772C819.831 191.521 818.696 191.162 817.912 191.432Z" fill="black"/>
<path d="M820.383 153.42C819.704 154.6 822.632 155.57 822.199 157.013C821.766 158.457 820.205 158.655 820.536 160.318C820.867 161.98 819.781 163.627 820.412 164.373C821.044 165.119 819.106 165.174 819.524 166.227C819.942 167.281 819.681 167.914 819.041 168.823C818.4 169.733 817.829 172.544 818.59 173.577C819.351 174.611 817.996 175.764 817.669 176.463C817.567 176.68 817.429 176.851 817.287 176.981C817.226 177.037 817.101 177.061 816.977 177.059C816.977 177.059 816.977 177.059 816.977 177.059C816.823 177.058 816.672 177.016 816.654 176.944C816.563 176.593 816.321 176.069 815.77 175.446C814.743 174.284 815.894 174.173 815.378 172.615C814.862 171.057 813.804 170.112 814.517 168.294C815.23 166.477 812.343 166.023 814.013 163.466C815.683 160.908 812.661 160.601 812.289 158.028C811.918 155.455 813.626 152.234 813.506 150.684C813.386 149.134 813.058 147.051 813.484 144.861C813.909 142.672 812.934 139.95 813.675 137.537C814.416 135.123 815.357 131.709 815.978 130.134C816.6 128.559 816.741 128.175 816.391 126.647C816.189 125.77 816.403 124.566 817.194 123.557C817.592 123.049 818.136 123.171 818.391 123.691C818.764 124.45 818.502 125.066 819.179 125.463C820.533 126.256 821.051 126.592 820.246 127.564C819.442 128.535 821.239 129.018 821.024 129.588C820.81 130.157 819.747 130.135 820.531 133.051C821.316 135.968 821.506 137.564 821.689 138.667C821.873 139.77 820.923 142.058 821.234 143.856C821.546 145.654 821.197 149.297 821.725 150.774C822.252 152.251 821.062 152.24 820.383 153.42Z" fill="black"/>
<path d="M670.046 65.0155C677.183 68.2698 683.965 67.5709 692.796 71.1654C701.628 74.7598 702.447 76.7077 712.839 80.0458C723.231 83.3839 733.152 88.0584 737.942 89.0887C742.732 90.1186 742.563 92.1152 749.204 94.0295C755.844 95.9438 759.696 97.5876 765.165 100.209C770.635 102.831 787.908 109.569 794.515 111.107C801.122 112.644 807.91 116.493 812.156 118.347C813.479 118.925 814.5 119.434 815.271 119.859C815.597 120.039 815.715 120.214 815.674 120.33C815.674 120.33 815.674 120.33 815.674 120.331C815.622 120.475 815.323 120.529 814.871 120.389C812.677 119.705 809.361 118.786 805.356 117.949C797.888 116.387 797.497 115.026 787.705 112.098C777.914 109.169 771.779 108.114 760.702 103.425C749.625 98.7358 746.055 100.533 730.642 93.2885C715.229 86.0445 712.532 88.2937 696.488 82.9922C680.444 77.6907 660.923 68.9483 651.287 65.6544C641.65 62.3605 628.651 58.0934 615.191 52.8631C601.73 47.6328 584.608 42.5896 569.841 36.5603C555.074 30.5312 534.16 22.1084 524.561 18.0408C514.963 13.9734 512.62 12.9923 503.062 9.9707C497.567 8.23382 490.164 5.37841 484.116 2.39189C481.072 0.888872 481.975 0.631898 485.259 1.52732C490.062 2.83674 493.813 4.447 496.451 4.66469C501.722 5.09945 503.943 5.33738 509.752 8.2538C515.56 11.17 519.029 10.4944 522.501 11.9544C525.972 13.4144 525.557 14.395 543.84 20.0532C562.123 25.7116 572.065 29.0395 578.95 31.2893C585.836 33.539 599.765 39.4924 610.991 43.147C622.217 46.8017 644.708 55.1567 654 57.8953C663.291 60.6338 662.909 61.7613 670.046 65.0155Z" fill="black"/>
<path d="M269.615 25.2923C280.287 24.5855 288.244 20.5953 301.2 19.342C314.156 18.0887 316.288 19.3853 331.02 17.1303C345.752 14.8754 360.673 14.0247 367.17 12.5403C373.668 11.0558 374.61 12.8872 383.898 11.2547C393.185 9.62227 398.88 9.1422 407.132 8.71206C415.384 8.28184 440.556 5.57496 449.585 3.62977C458.615 1.68457 469.198 1.67176 475.5 1.17931C477.463 1.02592 479.015 0.962377 480.21 0.950512C480.716 0.945544 480.963 1.03999 480.979 1.16255C480.979 1.16263 480.979 1.16271 480.979 1.16279C480.998 1.31544 480.66 1.5116 480.022 1.61356C476.925 2.10854 472.309 2.95536 466.889 4.2175C456.785 6.57088 455.519 5.57481 441.763 7.88938C428.007 10.2039 419.838 12.3362 403.483 13.7499C387.129 15.1637 383.763 18.5149 360.592 19.8524C337.422 21.19 335.392 24.5023 312.563 27.8544C289.733 31.2065 260.636 33.2787 246.861 35.1962C233.086 37.1137 214.606 39.8541 195.001 41.9817C175.397 44.1094 151.388 48.2243 129.712 50.3035C108.038 52.3827 77.4079 55.4287 63.2333 56.6502C49.0593 57.8717 45.6059 58.1803 32.0841 60.2969C24.3116 61.5135 13.5414 62.7023 4.36601 63.1013C-0.251659 63.3021 0.713487 62.6273 5.27741 61.775C11.9513 60.5287 17.5027 60.0694 20.8794 58.9459C27.6266 56.7008 30.5015 55.8026 39.3413 55.4616C48.1806 55.1206 52.0671 52.8013 57.1872 52.3497C62.3076 51.8981 62.3599 52.9635 88.1547 48.8083C113.95 44.653 128.121 42.6132 137.904 41.1523C147.687 39.6914 168.286 37.9634 184.228 35.57C200.17 33.1766 232.706 29.2852 245.736 27.0537C258.765 24.8222 258.945 25.9991 269.615 25.2923Z" fill="black"/>
<path d="M817.989 171.138C817.721 171.753 819.282 169.262 819.158 169.672C819.034 170.081 818.249 171.428 818.53 171.187C818.811 170.947 818.367 171.923 818.739 171.4C819.113 170.876 818.126 172.543 818.41 172.211C818.694 171.88 818.604 172.12 818.337 172.695C818.071 173.269 817.968 173.833 818.427 173.206C818.885 172.579 818.269 173.774 818.149 174.073C818.112 174.166 818.053 174.289 817.989 174.415C817.962 174.469 817.899 174.577 817.836 174.683C817.836 174.684 817.836 174.684 817.836 174.684C817.757 174.816 817.677 174.944 817.663 174.958C817.593 175.027 817.434 175.222 817.11 175.679C816.508 176.531 817.089 175.538 816.72 175.941C816.352 176.344 815.747 177.229 815.99 176.568C816.232 175.908 814.726 178.378 815.407 176.876C816.089 175.374 814.524 177.963 814.161 178.215C813.798 178.467 814.455 176.915 814.289 176.978C814.124 177.04 813.817 177.267 813.887 176.844C813.957 176.421 813.276 177.189 813.493 176.489C813.709 175.788 813.961 174.891 814.173 174.315C814.385 173.74 814.431 173.609 814.149 173.87C813.987 174.02 814.016 173.805 814.352 173.099C814.522 172.743 814.808 172.279 814.973 172.073C815.215 171.773 815.122 172.014 815.495 171.443C816.24 170.3 816.528 169.863 816.182 170.58C815.836 171.297 816.787 169.766 816.715 169.965C816.644 170.164 816.099 171.077 816.696 170.479C817.293 169.881 817.497 169.759 817.665 169.63C817.833 169.502 817.501 170.378 817.781 170.157C818.061 169.936 818.128 170.331 818.497 169.916C818.866 169.501 818.257 170.524 817.989 171.138Z" fill="black"/>
<path d="M529.049 73.5432C537.962 74.807 545.209 72.3474 556.098 73.4936C566.987 74.6398 568.518 76.3048 581.044 76.7929C593.57 77.281 606.007 79.1833 611.617 78.9174C617.226 78.6513 617.684 80.6233 625.618 80.724C633.551 80.8246 638.325 81.398 645.197 82.4896C652.068 83.5812 673.272 85.5412 681.047 85.2872C688.822 85.0332 697.541 86.9627 702.818 87.6353C704.461 87.8449 705.751 88.0673 706.737 88.2749C707.155 88.3628 707.341 88.5008 707.333 88.6242C707.333 88.6242 707.333 88.6243 707.333 88.6244C707.322 88.7779 707.01 88.9087 706.467 88.8917C703.829 88.8095 699.88 88.7944 695.197 89.0399C686.466 89.4975 685.596 88.2867 673.864 88.0362C662.131 87.7857 655.032 88.3813 641.316 86.7691C627.6 85.1569 624.245 87.8313 604.928 84.8934C585.611 81.9556 583.364 84.8371 563.978 83.9408C544.592 83.0445 520.266 79.741 508.587 79.0969C496.908 78.4527 481.21 77.7537 464.693 76.2464C448.176 74.7392 427.686 74.3758 409.472 72.441C391.258 70.5061 365.5 67.8778 353.613 66.4768C341.726 65.0758 338.828 64.7452 327.323 64.3433C320.71 64.1122 311.632 63.3037 304.005 62.012C300.167 61.3619 301.079 60.8761 304.987 60.8763C310.7 60.8766 315.352 61.4441 318.329 60.9601C324.276 59.9927 326.8 59.6379 334.14 60.925C341.48 62.212 345.084 60.6468 349.38 61.1427C353.676 61.6387 353.534 62.6949 375.502 63.3463C397.47 63.9978 409.497 64.5944 417.809 64.9544C426.121 65.3145 443.387 67.3967 456.933 67.9709C470.48 68.5451 497.955 70.6927 509.075 70.8915C520.194 71.0904 520.138 72.2794 529.049 73.5432Z" fill="black"/>
<path d="M609.882 50.8782C614.67 53.2653 619.587 51.878 625.553 54.4148C631.52 56.9516 631.917 58.7436 639.024 60.8691C646.131 62.9946 652.772 66.4582 656.097 66.9477C659.422 67.437 659.108 69.3798 663.671 70.5271C668.233 71.6743 670.828 72.8541 674.485 74.8064C678.142 76.7588 689.84 81.4389 694.415 82.2267C698.99 83.0145 703.47 86.0113 706.327 87.3524C707.217 87.7702 707.898 88.1533 708.408 88.4821C708.624 88.6214 708.691 88.7779 708.65 88.8945C708.65 88.8946 708.65 88.8946 708.65 88.8947C708.599 89.0399 708.38 89.1233 708.07 89.0351C706.568 88.6072 704.287 88.0695 701.504 87.6833C696.316 86.9632 696.168 85.6923 689.45 83.8987C682.733 82.1051 678.449 81.733 670.983 78.3768C663.517 75.0207 660.791 77.1288 650.471 71.7652C640.153 66.4018 638.006 68.8543 627.049 65.4302C616.09 62.0061 602.98 55.63 596.409 53.4677C589.838 51.3054 580.957 48.5583 571.839 44.9312C562.721 41.3041 550.967 38.2423 540.992 33.9823C531.018 29.7223 516.88 23.8009 510.411 20.8886C503.942 17.9764 502.361 17.277 495.82 15.3689C492.06 14.2721 487.043 12.2977 483.007 10.0543C480.977 8.92521 481.647 8.58242 483.909 9.10032C487.216 9.85768 489.742 11.0157 491.607 10.9481C495.333 10.8129 496.898 10.8086 500.769 13.0096C504.64 15.2105 507.185 14.1942 509.526 15.2367C511.867 16.2793 511.475 17.2685 523.999 20.801C536.524 24.3336 543.31 26.4966 548.015 27.9415C552.721 29.3864 562.103 33.6615 569.776 36.0045C577.449 38.3475 592.721 44.0375 599.099 45.7007C605.477 47.3638 605.095 48.4912 609.882 50.8782Z" fill="black"/>
<path d="M402.232 14.2141C406.219 14.462 408.994 11.214 413.812 11.1232C418.63 11.0325 419.509 12.5074 424.939 11.5815C430.37 10.6558 435.952 11.1389 438.32 10.245C440.687 9.35101 441.147 11.2502 444.559 10.4575C447.971 9.66494 450.092 9.69527 453.182 10.0023C456.271 10.3094 465.616 9.86371 468.913 8.73813C472.209 7.61255 476.203 8.54058 478.553 8.61262C479.285 8.63505 479.867 8.71005 480.317 8.80448C480.508 8.84454 480.606 8.96007 480.619 9.08298C480.619 9.08306 480.619 9.08314 480.619 9.08322C480.635 9.23626 480.519 9.40068 480.284 9.44503C479.143 9.66033 477.45 10.0895 475.477 10.8588C471.798 12.2935 471.263 11.1936 466.204 12.2652C461.145 13.3367 458.184 14.7242 452.093 14.6718C446.001 14.6196 444.923 17.6422 436.255 16.9085C427.587 16.1748 427.01 19.2777 418.586 20.5712C410.162 21.8647 399.3 21.3325 394.211 22.0087C389.122 22.6849 382.304 23.7587 375.028 24.1252C367.751 24.4916 358.925 26.4364 350.864 26.5708C342.803 26.7051 331.418 27.0019 326.138 26.9528C320.859 26.9037 319.574 26.9026 314.592 27.7988C311.728 28.3139 307.731 28.535 304.291 28.1149C302.56 27.9035 302.886 27.3204 304.56 26.8812C307.007 26.239 309.076 26.2772 310.286 25.4637C312.704 23.838 313.738 23.2031 317.054 23.6509C320.37 24.0985 321.705 22.145 323.611 22.1524C325.518 22.16 325.598 23.2207 335.095 21.3947C344.593 19.5686 349.824 18.8064 353.433 18.2278C357.041 17.6492 364.716 17.7673 370.596 16.8119C376.475 15.8565 388.531 14.8912 393.321 13.8374C398.111 12.7836 398.246 13.9662 402.232 14.2141Z" fill="black"/>
<path d="M295.272 46.3651C295.997 45.656 293.117 44.8164 293.607 43.92C294.096 43.0236 295.662 43.011 295.399 41.9173C295.136 40.8236 296.286 39.8444 295.686 39.3181C295.086 38.7917 297.021 38.8991 296.647 38.1906C296.273 37.4821 296.558 37.0945 297.234 36.5566C297.909 36.0187 298.593 34.2528 297.876 33.5319C297.158 32.8109 298.557 32.1695 298.911 31.744C299.021 31.6114 299.166 31.5118 299.313 31.4384C299.376 31.4074 299.502 31.401 299.625 31.411C299.625 31.411 299.625 31.411 299.625 31.411C299.779 31.4235 299.928 31.4616 299.943 31.5093C300.019 31.7412 300.24 32.0965 300.764 32.5376C301.741 33.3602 300.588 33.3474 301.04 34.3875C301.491 35.4275 302.508 36.1131 301.724 37.2295C300.939 38.3459 303.8 38.8504 302.031 40.3723C300.262 41.8943 303.264 42.3144 303.53 43.9965C303.796 45.6787 301.963 47.6251 302.02 48.6307C302.077 49.6362 302.319 51.0003 301.806 52.3774C301.293 53.7546 302.156 55.5765 301.319 57.0746C300.482 58.5726 299.406 60.6992 298.722 61.6665C298.039 62.6337 297.883 62.8704 298.17 63.8785C298.336 64.4579 298.073 65.2163 297.244 65.8072C296.826 66.1046 296.289 65.9857 296.055 65.6331C295.714 65.1174 296.001 64.7403 295.342 64.4352C294.024 63.8254 293.52 63.5709 294.362 63.0054C295.204 62.44 293.432 61.9967 293.668 61.6464C293.905 61.296 294.964 61.3885 294.3 59.4548C293.636 57.5212 293.511 56.4807 293.373 55.7576C293.234 55.0346 294.274 53.6332 294.036 52.4538C293.798 51.2744 294.294 48.9566 293.827 47.968C293.361 46.9794 294.547 47.0741 295.272 46.3651Z" fill="black"/>
<path d="M307.088 77.8106C306.38 78.0079 309.235 78.7458 308.762 79.0528C308.288 79.3597 306.741 79.1538 307.014 79.6444C307.286 80.135 306.161 80.3874 306.759 80.6873C307.358 80.9873 305.445 80.6816 305.823 81.0269C306.2 81.3722 305.923 81.495 305.261 81.6277C304.6 81.7604 303.945 82.4031 304.662 82.7999C305.379 83.1967 304.004 83.2749 303.659 83.4042C303.552 83.4445 303.41 83.4665 303.265 83.4771C303.204 83.4816 303.079 83.4672 302.957 83.4464C302.957 83.4464 302.957 83.4464 302.957 83.4464C302.805 83.4205 302.658 83.3846 302.642 83.3626C302.564 83.2559 302.342 83.0782 301.819 82.8239C300.845 82.3498 301.984 82.5107 301.526 82.0169C301.067 81.5231 300.055 81.1006 300.818 80.7419C301.58 80.3832 298.747 79.7872 300.478 79.3925C302.208 78.9978 299.238 78.418 298.956 77.6821C298.673 76.9461 300.463 76.3834 300.395 75.9573C300.327 75.5311 300.072 74.9308 300.563 74.4269C301.054 73.923 300.181 73.0484 300.991 72.5379C301.801 72.0274 302.84 71.2876 303.505 70.9773C304.169 70.667 304.32 70.5896 304.025 70.1313C303.855 69.8678 304.105 69.5876 304.918 69.4536C305.327 69.3861 305.86 69.5082 306.095 69.6864C306.437 69.947 306.158 70.0653 306.813 70.2812C308.122 70.7128 308.623 70.8867 307.798 71.0084C306.972 71.1301 308.729 71.5537 308.499 71.6676C308.269 71.7814 307.221 71.6 307.899 72.4943C308.578 73.3887 308.713 73.8385 308.858 74.1581C309.003 74.4777 307.991 74.9205 308.24 75.4434C308.488 75.9664 308.025 76.8641 308.498 77.3385C308.97 77.8128 307.796 77.6133 307.088 77.8106Z" fill="black"/>
<path d="M293.342 124.768C293.938 122.628 290.946 121.055 291.278 118.459C291.61 115.863 293.156 115.426 292.709 112.48C292.263 109.534 293.233 106.541 292.551 105.245C291.868 103.949 293.799 103.747 293.309 101.891C292.819 100.035 293.035 98.8938 293.611 97.2382C294.188 95.5825 294.562 90.5411 293.73 88.7391C292.898 86.9372 294.172 84.8102 294.45 83.5468C294.536 83.1532 294.662 82.8417 294.796 82.6016C294.852 82.4999 294.976 82.4498 295.099 82.4458C295.099 82.4458 295.1 82.4458 295.1 82.4458C295.253 82.4408 295.407 82.5074 295.431 82.635C295.545 83.2543 295.824 84.1765 296.417 85.2573C297.524 87.2726 296.381 87.5337 297.005 90.2832C297.629 93.0327 298.751 94.6604 298.166 97.9382C297.58 101.216 300.495 101.87 299.005 106.518C297.515 111.167 300.555 111.553 301.105 116.119C301.655 120.685 300.173 126.52 300.401 129.276C300.628 132.032 301.1 135.728 300.827 139.654C300.555 143.58 301.718 148.378 301.146 152.721C300.573 157.064 299.872 163.2 299.36 166.041C298.849 168.881 298.735 169.574 299.191 172.277C299.453 173.831 299.323 175.988 298.603 177.83C298.241 178.756 297.689 178.567 297.398 177.655C296.973 176.322 297.192 175.209 296.488 174.538C295.081 173.197 294.54 172.625 295.276 170.851C296.013 169.076 294.184 168.311 294.359 167.284C294.533 166.258 295.596 166.241 294.61 161.084C293.624 155.927 293.323 153.092 293.063 151.135C292.803 149.179 293.593 145.05 293.157 141.862C292.72 138.673 292.815 132.16 292.186 129.556C291.556 126.952 292.745 126.908 293.342 124.768Z" fill="black"/>
<path d="M463.998 84.9745C463.388 85.3464 466.318 85.0376 465.964 85.4223C465.61 85.807 464.083 86.1247 464.492 86.4216C464.9 86.7186 463.913 87.262 464.572 87.31C465.231 87.358 463.327 87.7114 463.79 87.863C464.254 88.0145 464.029 88.1956 463.444 88.5029C462.859 88.8102 462.437 89.5116 463.237 89.5983C464.038 89.685 462.761 90.1704 462.474 90.3773C462.385 90.4418 462.258 90.5025 462.124 90.5556C462.067 90.578 461.945 90.6054 461.823 90.6269C461.823 90.6269 461.823 90.6269 461.823 90.6269C461.671 90.6536 461.521 90.6713 461.499 90.6592C461.393 90.6002 461.128 90.5309 460.555 90.4949C459.486 90.4278 460.614 90.2009 460.028 89.959C459.442 89.7171 458.354 89.7017 458.965 89.1876C459.576 88.6735 456.712 89.0857 458.228 88.2447C459.744 87.4037 456.755 87.8709 456.261 87.3866C455.767 86.9023 457.287 85.9127 457.092 85.6027C456.897 85.2927 456.47 84.9052 456.78 84.3623C457.09 83.8193 455.994 83.4098 456.603 82.7633C457.213 82.1167 457.968 81.2213 458.502 80.7751C459.035 80.3289 459.154 80.2221 458.734 79.9574C458.492 79.8053 458.642 79.5104 459.37 79.1553C459.737 78.9765 460.279 78.9068 460.555 78.9727C460.96 79.0692 460.733 79.2472 461.419 79.2126C462.791 79.1434 463.318 79.1238 462.574 79.4733C461.831 79.8227 463.623 79.6092 463.441 79.7686C463.258 79.9281 462.211 80.1108 463.128 80.5958C464.046 81.0807 464.312 81.3882 464.548 81.5916C464.783 81.795 463.962 82.4514 464.359 82.7807C464.755 83.1099 464.593 83.9501 465.186 84.1726C465.779 84.3951 464.607 84.6026 463.998 84.9745Z" fill="black"/>
<path d="M451.875 131.72C452.485 129.671 449.504 128.151 449.853 125.663C450.201 123.176 451.75 122.763 451.323 119.937C450.896 117.111 451.885 114.245 451.211 113C450.536 111.754 452.469 111.569 451.99 109.787C451.512 108.006 451.736 106.913 452.323 105.328C452.91 103.743 453.317 98.911 452.497 97.1801C451.677 95.4491 452.964 93.415 453.25 92.2049C453.339 91.828 453.467 91.5297 453.602 91.3001C453.659 91.2029 453.783 91.1553 453.906 91.1519C453.907 91.1519 453.907 91.1519 453.907 91.1519C454.06 91.1478 454.214 91.2123 454.236 91.3347C454.347 91.9289 454.62 92.8141 455.206 93.8527C456.299 95.7893 455.156 96.035 455.762 98.6735C456.368 101.312 457.479 102.877 456.872 106.017C456.265 109.157 459.177 109.796 457.656 114.247C456.137 118.697 459.173 119.079 459.694 123.459C460.214 127.839 458.695 133.427 458.905 136.07C459.115 138.713 459.563 142.259 459.265 146.022C458.967 149.785 460.099 154.39 459.499 158.551C458.898 162.712 458.157 168.592 457.627 171.314C457.097 174.035 456.979 174.698 457.417 177.292C457.669 178.783 457.525 180.85 456.794 182.613C456.426 183.5 455.875 183.316 455.59 182.441C455.174 181.161 455.4 180.095 454.7 179.449C453.302 178.157 452.764 177.607 453.512 175.909C454.26 174.21 452.436 173.469 452.618 172.486C452.799 171.503 453.862 171.49 452.909 166.542C451.956 161.594 451.674 158.875 451.426 156.998C451.179 155.121 451.996 151.166 451.58 148.108C451.164 145.049 451.301 138.805 450.689 136.306C450.076 133.807 451.265 133.769 451.875 131.72Z" fill="black"/>
<path d="M624.6 95.4658C623.97 95.7946 626.911 95.6369 626.536 95.9902C626.16 96.3435 624.618 96.5765 625.008 96.8817C625.399 97.1868 624.382 97.6627 625.037 97.7403C625.692 97.8179 623.771 98.0673 624.224 98.2351C624.678 98.403 624.443 98.5665 623.841 98.8344C623.24 99.1022 622.778 99.757 623.571 99.8786C624.365 100 623.063 100.406 622.765 100.592C622.672 100.65 622.541 100.702 622.405 100.747C622.347 100.766 622.223 100.786 622.1 100.801C622.1 100.801 622.1 100.801 622.1 100.801C621.947 100.819 621.796 100.829 621.775 100.817C621.672 100.755 621.412 100.676 620.842 100.614C619.78 100.498 620.918 100.333 620.348 100.073C619.778 99.8122 618.693 99.7456 619.333 99.28C619.973 98.8145 617.09 99.0748 618.652 98.3377C620.214 97.6007 617.204 97.9079 616.74 97.4185C616.275 96.929 617.85 96.0491 617.673 95.7416C617.496 95.434 617.094 95.0409 617.434 94.5332C617.775 94.0255 616.706 93.5793 617.351 92.9862C617.997 92.3931 618.803 91.5675 619.362 91.1636C619.92 90.7596 620.045 90.6625 619.641 90.3878C619.408 90.23 619.576 89.9534 620.323 89.6463C620.699 89.4918 621.244 89.4504 621.516 89.5271C621.914 89.6392 621.677 89.7996 622.364 89.799C623.737 89.7977 624.264 89.8039 623.501 90.1048C622.739 90.4056 624.54 90.2855 624.349 90.4302C624.157 90.5749 623.101 90.7009 623.988 91.2112C624.875 91.7214 625.123 92.0301 625.347 92.237C625.57 92.4439 624.712 93.0364 625.088 93.372C625.464 93.7077 625.254 94.5084 625.833 94.7507C626.411 94.993 625.23 95.1369 624.6 95.4658Z" fill="black"/>
<path d="M609.732 138.051C610.463 136.205 607.579 134.628 608.075 132.364C608.571 130.1 610.142 129.814 609.884 127.192C609.627 124.569 610.786 121.996 610.187 120.811C609.588 119.626 611.528 119.573 611.157 117.907C610.786 116.242 611.075 115.251 611.756 113.83C612.436 112.409 613.132 107.995 612.416 106.355C611.701 104.715 613.108 102.924 613.465 101.829C613.577 101.488 613.722 101.222 613.87 101.019C613.933 100.933 614.06 100.897 614.183 100.902C614.183 100.902 614.184 100.902 614.184 100.902C614.337 100.907 614.486 100.976 614.502 101.089C614.577 101.642 614.796 102.472 615.319 103.462C616.295 105.307 615.138 105.463 615.586 107.924C616.033 110.385 617.049 111.89 616.255 114.738C615.462 117.587 618.329 118.35 616.546 122.347C614.763 126.343 617.771 126.878 618.029 130.934C618.287 134.989 616.437 140.031 616.488 142.472C616.539 144.913 616.775 148.198 616.253 151.637C615.73 155.077 616.585 159.376 615.737 163.162C614.889 166.949 613.798 172.307 613.106 174.775C612.415 177.243 612.257 177.845 612.54 180.255C612.702 181.64 612.435 183.531 611.6 185.106C611.179 185.899 610.64 185.696 610.408 184.875C610.069 183.674 610.359 182.708 609.699 182.072C608.381 180.801 607.877 180.263 608.725 178.748C609.573 177.233 607.797 176.441 608.036 175.549C608.276 174.657 609.338 174.71 608.683 170.106C608.027 165.502 607.908 162.987 607.773 161.248C607.638 159.508 608.69 155.924 608.458 153.089C608.226 150.254 608.736 144.525 608.273 142.192C607.811 139.859 609 139.897 609.732 138.051Z" fill="black"/>
<path d="M497.115 107.322C495.338 106.657 493.938 109.596 491.772 109.18C489.606 108.765 489.281 107.206 486.801 107.557C484.32 107.907 481.838 106.841 480.733 107.482C479.628 108.122 479.512 106.185 477.943 106.615C476.375 107.046 475.424 106.793 474.052 106.163C473.209 105.776 471.291 105.424 469.583 105.39L468.574 105.515L468.413 104.221C468.435 103.15 468.332 102.162 468.034 101.571C467.26 100.039 468.602 98.2907 468.92 97.2395C469.02 96.912 469.155 96.6543 469.296 96.4568C469.356 96.3731 469.481 96.3344 469.605 96.3344C469.605 96.3344 469.605 96.3344 469.605 96.3344C469.759 96.3344 469.91 96.3944 469.93 96.5019C470.024 97.024 470.273 97.8044 470.831 98.7262C471.872 100.445 470.722 100.633 471.257 102.954C471.361 103.406 471.485 103.822 471.613 104.221L469.583 102.19C471.23 101.662 472.563 101.077 474.762 101.634C477.493 102.325 478.12 99.4323 481.975 101.072C485.83 102.711 486.236 99.6856 490.077 99.2833C493.919 98.881 498.768 100.55 501.084 100.412C501.364 100.395 501.655 100.375 501.958 100.354L498.091 104.221C497.936 102.024 497.706 99.2716 498.057 96.3859C498.059 96.3687 498.061 96.3516 498.063 96.3344L501.958 100.229C498.684 99.8459 494.655 100.84 491.05 100.131C487.426 99.4186 482.303 98.5189 479.936 97.916C477.57 97.3131 476.993 97.1771 474.715 97.5455C473.405 97.7572 471.601 97.5576 470.078 96.7789C469.311 96.387 469.485 95.8413 470.256 95.5801C471.385 95.1984 472.312 95.4534 472.893 94.7714C474.055 93.4085 474.549 92.8856 476.016 93.6789C477.483 94.4721 478.174 92.6694 479.03 92.8769C479.885 93.0845 479.871 94.1478 484.219 93.3286C488.567 92.5093 490.951 92.3003 492.598 92.1036C494.244 91.9069 497.683 92.8297 500.367 92.4967C500.826 92.4397 501.366 92.4014 501.958 92.3743L505.373 91.9501L505.918 96.3344C506.031 98.8084 505.948 102.174 506.214 104.221L506.67 107.892L501.958 108.477C501.634 108.519 501.344 108.57 501.096 108.631C498.897 109.177 498.892 107.987 497.115 107.322Z" fill="black"/>
<path d="M336.901 98.536C335.123 97.871 333.724 100.81 331.558 100.394C329.392 99.9791 329.067 98.4202 326.586 98.771C324.106 99.1216 321.623 98.0554 320.519 98.6959C319.414 99.3365 319.298 97.3996 317.729 97.8298C316.161 98.2599 315.21 98.0071 313.838 97.3775C312.995 96.9905 311.077 96.6382 309.368 96.604L308.36 96.7292L308.199 95.4349C308.221 94.3643 308.117 93.3759 307.819 92.7856C307.046 91.253 308.388 89.505 308.706 88.4538C308.805 88.1264 308.941 87.8687 309.082 87.6711C309.142 87.5874 309.267 87.5488 309.391 87.5487C309.391 87.5487 309.391 87.5487 309.391 87.5487C309.545 87.5488 309.696 87.6087 309.716 87.7163C309.81 88.2384 310.059 89.0187 310.617 89.9405C311.658 91.6593 310.508 91.8472 311.043 94.1681C311.147 94.6199 311.271 95.0366 311.399 95.4349L309.368 93.4045C311.016 92.8764 312.349 92.2914 314.548 92.8481C317.279 93.5393 317.906 90.6466 321.761 92.286C325.616 93.9252 326.022 90.8999 329.863 90.4976C333.705 90.0954 338.554 91.7646 340.869 91.6262C341.149 91.6094 341.441 91.5896 341.743 91.5683L337.877 95.4349C337.722 93.2383 337.492 90.486 337.843 87.6002C337.845 87.5831 337.847 87.5659 337.849 87.5487L341.743 91.4429C338.47 91.0602 334.441 92.0539 330.836 91.3453C327.212 90.6329 322.089 89.7332 319.722 89.1303C317.356 88.5274 316.779 88.3914 314.501 88.7598C313.191 88.9716 311.387 88.772 309.864 87.9932C309.097 87.6013 309.27 87.0556 310.042 86.7945C311.171 86.4127 312.098 86.6677 312.679 85.9858C313.841 84.6228 314.335 84.0999 315.802 84.8932C317.269 85.6864 317.96 83.8837 318.816 84.0912C319.671 84.2988 319.657 85.3621 324.005 84.5429C328.353 83.7236 330.737 83.5146 332.384 83.3179C334.03 83.1212 337.469 84.0441 340.152 83.711C340.612 83.654 341.152 83.6157 341.743 83.5886L345.159 83.1644L345.704 87.5487C345.817 90.0227 345.733 93.3887 346 95.4349L346.456 99.1061L341.743 99.6913C341.42 99.7334 341.13 99.7842 340.882 99.8458C338.682 100.391 338.678 99.2009 336.901 98.536Z" fill="black"/>
</svg>
