<svg width="129" height="130" viewBox="0 0 129 130" fill="none" xmlns="http://www.w3.org/2000/svg">
<path d="M16.8516 22.0146C27.9205 9.47555 45.6598 0.964528 62.4981 0.607455C64.5496 0.548002 64.4166 0.808022 64.9923 0.82932C65.1282 0.835891 65.2595 0.84021 65.3867 0.842621C66.7343 0.870378 67.6197 0.66933 68.6631 0.737497C74.2342 1.11883 79.4047 2.07743 84.5988 3.76075C89.9137 5.6134 87.1249 5.4868 88.8763 6.31678C92.2188 8.06227 89.6277 5.96189 91.085 6.34167C95.0736 8.12015 98.8861 10.363 102.396 12.9405C101.472 12.4047 100.541 11.8927 99.5896 11.3938C101.187 12.4128 103.309 14.0744 100.565 12.5138C101.107 12.953 101.598 13.3842 102.142 13.8489C102.512 13.6591 105.198 15.6342 105.553 15.6823C105.923 15.7088 104.409 14.5837 104.425 14.5816C104.752 14.3721 110.406 19.6857 110.695 20.176C111.681 21.269 110.469 20.6587 111.36 21.5268C112.858 23.0407 112.565 21.4077 113.614 24.3425C114.648 24.9675 114.57 25.1724 115.46 26.3217C115.576 26.4737 115.655 26.2212 115.712 26.2839C117.2 27.9292 115.834 26.8348 115.825 26.8589C115.661 27.2408 117.2 29.0226 117.448 29.4574C120.613 34.8305 122.466 38.9834 124.592 45.1004C125.076 46.4097 126.42 50.477 126.626 51.8189C126.86 53.138 126.438 52.496 126.459 53.2047C127.315 54.1589 127.62 55.2286 127.537 57.7737C128.123 58.6414 127.745 58.5757 128.012 60.349C128.236 61.821 128.929 64.4253 128.433 66.0939C128.461 64.192 128.239 64.3962 127.99 62.2861C128.015 61.5695 127.026 54.2798 126.563 54.9228C126.377 55.2429 126.978 57.5914 126.933 57.6918C126.734 58.261 126.238 56.9877 126.152 55.7964C126.256 56.0789 126.367 56.4236 126.469 56.7308C126.369 54.029 125.402 56.0787 126.144 53.8762C126.231 53.6024 126.394 53.6706 126.454 53.2301C126.377 53.1588 126.332 53.6899 126.216 53.2648C126.099 52.8323 126.192 51.938 125.925 51.87C125.542 51.7655 126.079 53.5377 126.08 53.6809C126.082 53.6819 126.085 53.6829 126.087 53.6839C126.147 54.9209 125.614 52.4175 125.542 52.3088C125.148 51.5903 125.111 52.1484 124.652 51.0532C124.393 50.4277 123.991 48.7669 123.77 48.1789C123.553 47.5936 123.678 48.5686 123.521 48.179C123.364 47.7903 123.326 47.2518 123.13 46.7977C123.046 46.6036 122.872 46.6736 122.833 46.5795C122.41 45.5735 123.013 46.1198 122.656 45.1947C122.427 44.5865 121.295 42.7246 121.739 44.1396C121.446 43.4912 121.159 42.8648 120.852 42.2273C120.978 42.6591 121.119 43.0953 121.221 43.521C120.804 42.2631 120.262 41.8401 119.899 41.1009C119.534 40.3634 119.555 39.5245 118.973 38.7947C117.744 37.2462 120.07 41.4473 120.2 42.0441C120.268 42.2667 119.634 41.5755 119.568 41.4569C119.284 40.9215 119.17 40.184 118.952 39.7661C118.173 38.2776 117.436 37.5119 116.589 36.1686C113.729 31.5678 109.366 26.4452 105.569 23.0531C104.168 21.7806 103.492 20.8108 102.825 20.2731C101.254 19.0344 100.886 19.112 99.4729 18.1084C97.3719 16.6127 94.3666 14.5335 92.4532 13.5116C91.135 12.7889 89.788 12.4741 89.4321 12.3226C84.4861 10.1484 78.1143 8.44829 73.6871 7.88105C71.6111 7.59552 70.6368 7.23273 70.2028 7.20201C68.3305 7.10411 68.8126 7.39612 67.3083 7.30907C66.4933 7.27071 66.3421 7.0251 66.2323 7.01293C65.8633 6.97677 65.6053 7.00365 65.3867 7.05032C65.031 7.1267 64.78 7.25459 64.314 7.26909C59.9988 7.41037 55.8246 7.72426 51.64 8.6867C51.3373 8.75676 51.3302 8.61135 51.1362 8.66663C50.3061 8.91213 50.7505 9.02962 49.882 9.27881C48.0816 9.80541 46.2369 10.3621 44.3668 11.046C44.1817 11.114 44.032 10.9731 43.6109 11.1394C43.1895 11.3074 42.9383 11.5963 42.2821 11.8646C40.5679 12.5694 38.823 13.1773 37.0856 14.1111C36.7977 14.2664 36.5523 14.656 36.1286 14.8958C34.7957 15.64 32.7723 16.6918 31.6899 17.4446C28.1103 19.9079 25.1598 22.6531 22.3622 25.6211C21.7049 26.3187 20.9871 26.8188 20.6542 27.1943C19.9096 28.0434 20.6085 27.5209 19.8758 28.3954C13.9301 35.5603 9.59157 44.1471 7.5939 53.3737C6.78436 56.9951 6.47784 61.507 6.3836 65.075C6.36985 65.4963 6.34203 65.8209 6.30761 66.0939C6.22192 66.7852 6.08771 67.1424 6.10712 67.8994C6.17372 69.7734 6.53773 70.1109 6.75388 72.0612C6.93647 73.6292 6.84981 75.464 7.17735 77.0845C7.50982 78.6934 7.99683 79.3708 8.50485 81.1734C8.92584 82.6624 9.42417 84.7738 10.0327 86.3468C15.5603 100.81 26.6242 112.672 40.5916 119.454C45.5227 121.871 51.3977 123.596 56.9923 124.701C57.5187 124.802 56.6576 125.023 58.3797 125.169C59.3132 125.238 60.6114 125.106 62.7447 125.19C63.6167 125.223 64.4975 125.24 65.3867 125.241C77.2567 125.332 89.9781 121.875 99.7748 114.717C116.033 103.046 122.679 83.2584 125.821 66.5626C125.989 65.719 126.797 66.173 127.022 66.6934C126.854 67.1699 126.65 67.6052 126.449 68.0926C127.429 68.7497 127.203 68.6358 126.948 70.9587C126.773 72.3824 127.301 71.278 127.354 72.0537C127.469 73.0626 127.235 77.8129 126.706 76.8009C126.771 77.1075 126.832 77.3922 126.891 77.6929C126.36 81.0701 125.64 84.328 124.675 87.5598C124.508 88.1166 124.695 88.2167 124.511 88.7928C124.012 90.3383 123.38 91.4721 122.693 92.9903C122.316 93.8115 122.48 94.0359 121.926 95.0913C121.36 96.1418 121.095 95.9604 120.607 97.5502C121.506 96.8402 118.856 100.785 117.881 102.152C117.751 102.356 116.89 104.21 116.195 105.031C115.507 105.861 114.309 106.978 113.314 108.306C112.847 108.928 112.742 109.473 112.176 110.099C111.778 110.54 111.101 110.874 110.565 111.393C110.034 111.916 109.001 113.18 108.78 113.381C107.996 114.114 108.751 113.186 108.202 113.671C105.555 116.016 102.221 118.408 99.3302 120.348C98.9746 120.587 99.5898 120.452 99.5454 120.488C97.1934 122.238 98.3748 121.182 97.6056 121.423C96.8872 121.707 91.9882 124.307 92.0738 124.612C91.7283 124.267 90.7411 125.089 90.4453 125.225C89.3084 125.757 89.3878 125.295 88.3042 125.849C87.9039 126.051 88.8116 125.991 88.3606 126.156C87.2378 126.562 86.0988 126.513 84.5898 126.946C84.2239 127.049 84.166 127.271 83.5173 127.457C82.8713 127.658 80.0692 128.133 81.4349 128.202C79.6927 128.303 79.3954 128.56 77.4353 128.938C76.937 129.029 76.2458 128.843 75.198 129.104C74.844 129.191 74.9002 129.486 74.3574 129.566C73.1158 129.744 71.9 129.574 70.3259 129.684C68.7183 129.795 67.0759 129.918 65.3867 129.962C63.9521 129.998 62.532 129.978 61.1057 129.848C60.2665 129.767 60.4972 129.488 59.2886 129.373C59.1165 129.359 57.6165 129.464 56.7837 129.322C56.2822 129.254 53.708 128.647 53.1989 128.518C52.3485 128.327 52.1316 128.575 51.6725 128.418C50.3492 127.949 51.5379 127.791 49.7767 127.965C49.3245 127.518 48.3718 127.294 48.1832 126.823C47.518 127.09 46.9377 126.484 45.849 126.286C44.7646 126.089 43.6229 126.578 43.6852 125.628C43.1624 125.567 41.053 124.938 40.7104 124.798C39.6904 124.406 40.3267 124.404 39.5612 124.105C39.4273 124.05 39.4929 124.274 38.6552 123.87C38.0892 123.642 34.1267 121.566 33.925 121.379C31.432 119.618 35.4417 122.071 36.1247 122.173C36.2042 122.27 36.2831 122.366 36.3707 122.466C37.5299 123.147 37.0212 122.453 36.527 122.097C36.0319 121.742 34.9572 121.358 34.5822 120.998C34.3964 120.818 34.76 120.49 35.3893 120.902C34.7563 120.388 35.7886 120.783 35.5761 120.511C35.3272 120.236 32.2879 118.37 32.1435 118.556C32.704 118.923 33.4206 119.351 33.9992 119.702C34.5587 120.542 31.3768 120.499 29.6199 118.544C28.3793 117.128 31.01 118.609 27.3259 116.371C27.8425 116.785 28.2682 117.149 28.7469 117.514C28.6027 117.825 28.0251 116.955 27.5609 116.738C27.3337 116.635 28.3944 117.718 27.3029 117.007C26.7007 115.949 25.7244 115.816 24.2799 114.607C24.7336 114.879 25.19 115.146 25.6482 115.406C23.4345 113.144 29.1446 117.673 24.5671 113.648C25.1324 114.113 25.6906 114.582 26.2793 115.023C26.1126 114.663 26.8787 114.613 26.7006 114.33C26.2368 113.592 25.1934 112.943 24.458 112.255C24.1365 111.954 24.4335 112.031 24.4064 112.006C23.9697 111.593 23.9306 111.834 23.5318 111.486C23.0239 111.051 21.7888 109.566 21.5603 109.357C20.9535 108.823 21.6081 110.064 21.535 110.03C21.028 109.805 20.4101 108.929 20.2643 109.145C22.0867 110.922 27.5104 115.933 22.2458 111.784C23.3238 113.34 22.5325 113.439 20.5562 111.585C18.9517 110.029 20.129 110.89 19.5042 109.885C19.41 109.766 17.5064 107.488 17.2851 107.477C17.6704 107.298 17.3263 106.336 18.063 106.549C18.1688 106.582 18.9384 107.497 18.9184 106.959C18.9079 106.69 18.802 105.999 19.0296 105.93C18.7574 105.845 18.4636 105.762 18.1838 105.674C17.0149 104.336 16.9957 104.024 16.6308 103.089C16.5632 103.193 16.7142 104.21 16.0095 103.032C15.9753 102.97 16.0781 102.816 15.7421 102.208C15.0685 100.974 14.9607 100.708 15.9945 101.273C14.1148 99.0971 14.2662 98.2606 12.6617 95.8288C12.3717 96.659 13.0025 97.5066 14.585 99.6837C14.5168 99.869 14.4161 100.002 14.3498 100.192C12.6917 96.972 13.6328 98.4964 12.301 96.9114C11.9669 96.5268 10.7744 94.1342 10.7996 95.1313C10.7994 95.3694 11.6245 96.8265 11.3878 96.7403C11.3352 96.7281 10.2845 94.9764 10.2474 94.793C9.72812 92.5352 11.7431 95.9958 8.9891 90.5037C8.91669 90.3505 8.71361 90.3729 8.55884 90.0771C8.27081 89.5216 8.47718 89.4284 8.22119 88.9324C7.96673 88.4374 7.40115 87.8171 7.3819 86.9325C7.35266 85.3299 8.81972 88.6029 9.22526 90.1569C9.87745 90.5497 6.28227 79.8703 6.33707 79.1285C5.4569 76.1845 6.6583 81.1392 6.58927 81.4262C6.54274 81.549 5.55918 81.7588 6.53223 82.8442C6.81836 83.1604 6.63219 81.5516 6.98859 82.4426C7.34916 83.3292 6.96693 83.0472 6.96569 83.1196C6.96282 83.3687 7.36191 84.3055 7.36457 84.4446C7.40423 86.5757 6.4141 86.6983 6.94747 83.6876C6.30329 82.6486 6.60518 85.3935 5.96998 84.0466C5.19717 82.3921 5.32986 80.9863 5.29635 80.7684C4.92648 78.0759 4.94561 81.2753 4.47387 77.9813C4.2477 76.1524 5.41118 80.5972 4.60508 76.4844C4.0278 73.0213 4.10013 74.9234 3.53741 74.7453C3.40849 74.703 2.99395 72.7882 3.41243 75.4128C3.55834 75.4669 3.75683 75.5788 3.90703 75.7263C3.9055 76.3817 3.42434 77.573 3.4683 77.9214C3.68379 79.6122 4.02503 79.4583 3.84029 80.5308C4.12313 79.7284 4.11667 80.9286 4.31838 81.3287C5.07602 82.8091 4.6161 80.7253 5.18201 84.3472C5.24951 83.8316 5.33201 83.3628 5.41473 82.8668C5.53818 83.2818 5.6661 83.6952 5.79788 84.1063C5.52379 84.8574 6.31429 87.0572 5.20887 85.1973C5.85921 87.6592 6.35875 88.5766 6.89477 88.9603C6.99825 89.0328 7.16245 89.3752 7.33687 89.784C7.4004 89.6671 7.65535 89.4483 7.7177 89.4981C8.26631 89.9417 8.10355 91.0594 7.76544 90.847C7.87866 91.1377 7.9668 91.3685 7.99699 91.4504C8.18886 91.9702 7.56275 91.0609 7.67973 91.4998C7.71429 91.6474 8.40649 93.0479 8.34821 93.1086C7.96794 93.5025 7.12128 91.0292 9.19117 95.811C9.66943 95.6972 8.48833 93.6062 9.22986 93.9259C10.0127 94.2655 9.97616 95.7912 10.717 95.7235C10.6704 95.8719 10.6116 95.9587 10.5449 96.102C11.8094 97.7654 11.3541 98.0583 11.5722 98.6723C11.969 99.8882 15.2157 104.557 12.7751 100.059C13.2195 100.656 13.6611 101.271 14.1197 101.852C13.3987 102.563 13.4056 102.003 15.4593 104.956C15.9195 105.599 15.7373 106.086 16.6412 106.349C16.1655 106.605 17.9351 108.194 18.0409 108.39C18.669 109.745 14.7615 106.114 15.1201 104.979C14.297 104.496 14.6739 104.211 14.0416 103.457C13.1382 102.357 12.9382 102.24 12.3017 100.641C10.9236 99.5446 15.849 106.13 12.448 102.423C8.39905 99.6332 -1.14219 76.1345 0.105213 66.0939C0.0919 65.1177 0.102008 64.2993 0.115961 63.6708C0.701182 51.167 2.69886 44.4905 7.91036 34.4945C8.32583 33.4396 12.9892 26.4154 12.4917 28.2153C12.3955 28.4616 10.5663 31.5337 12.6619 29.2631C12.0871 29.6214 12.9848 28.0505 13.0576 27.9145C14.6682 24.7737 13.2236 26.188 16.8516 22.0146ZM32.0749 15.5961C26.5355 19.3102 30.7664 16.8064 30.1495 18.2954C30.8263 17.7986 31.5114 17.3175 32.2094 16.8493C31.9963 16.9281 31.7858 17.0069 31.5731 17.0884C31.5723 17.089 31.5715 17.0895 31.5707 17.09C31.7303 16.5926 31.9 16.0933 32.0749 15.5961ZM121.632 45.4018C121.436 45.1987 121.241 45.0005 121.038 44.7807C120.76 43.9569 120.467 43.1473 120.152 42.3342C120.263 42.3988 120.375 42.4603 120.486 42.526C120.889 43.4755 121.266 44.4306 121.632 45.4018ZM9.71696 90.9691C9.95346 92.2457 10.4041 91.9049 10.9169 93.5127C11.1943 93.1435 11.4564 92.7615 11.7312 92.3911C11.1328 91.2976 10.8687 91.1065 10.4167 89.8223C10.3573 90.0201 10.2996 90.2223 10.2399 90.4185C10.3579 90.6149 10.4864 90.822 10.6005 91.0114C10.4039 91.4904 9.46132 89.5036 9.71439 90.9654C9.71525 90.9667 9.71611 90.9679 9.71696 90.9691ZM16.3123 101.982C16.6518 102.565 18.1513 104.797 18.5282 104.96C19.7177 105.564 14.8194 99.9045 18.6212 103.923C18.6688 103.852 18.7467 103.821 18.8095 103.771C18.2038 102.977 17.6156 102.173 17.0423 101.349C16.8144 101.583 16.5367 101.741 16.3123 101.982ZM15.1152 32.5067C14.4538 33.3135 12.2274 37.6908 13.3508 36.4918C13.6646 36.1393 14.335 34.0029 14.8195 33.3198C15.1265 32.8784 15.0345 33.5374 15.5326 32.5992C15.401 32.5669 15.2676 32.5122 15.1142 32.5096C15.1146 32.5086 15.1149 32.5077 15.1152 32.5067ZM14.8496 29.9397C14.2536 30.8596 13.6858 31.814 13.1402 32.7692C13.8431 32.2691 14.5537 30.854 14.9895 31.0447C14.848 31.3092 14.7102 31.5717 14.5727 31.838C14.3615 31.9698 14.1526 32.1002 13.9443 32.2323C13.6448 33.1558 14.0474 32.7381 13.069 34.1765C14.2289 33.6499 14.5853 33.6924 15.6923 30.8669C15.6864 31.5404 16.9749 31.8254 17.2252 30.0099C17.275 29.6671 16.4303 30.6205 16.4027 30.6194C16.0237 30.5878 16.2747 29.8918 15.9027 29.8809C15.7334 29.875 15.2743 30.5151 15.0497 30.5012C14.9401 30.4917 15.1618 29.7214 14.8496 29.9397ZM17.4561 29.1948C17.4127 29.5746 18.4609 28.9702 19.0013 28.1647C19.8544 26.9033 17.9797 28.4595 17.4561 29.1948ZM121.634 45.4071C121.633 45.4053 121.633 45.4036 121.632 45.4018C121.632 45.4026 121.633 45.4033 121.634 45.4041C121.634 45.4051 121.634 45.4061 121.634 45.4071ZM14.5305 98.9973C15.098 99.5712 15.7408 100.545 15.9111 100.322C16.086 100.666 16.2675 101.012 16.4493 101.353C16.512 101.303 16.5728 101.251 16.6349 101.201C16.0034 100.241 15.402 99.2659 14.8289 98.2732C14.7258 98.5094 14.6173 98.7378 14.5305 98.9973ZM22.306 108.928C23.322 109.976 22.7082 108.857 23.0582 108.958C23.4039 109.059 24.2371 110.05 24.3004 109.762C23.6893 109.174 23.0651 108.547 22.4723 107.926C22.4351 108.278 22.3489 108.586 22.3081 108.93C22.3074 108.929 22.3067 108.929 22.306 108.928ZM57.37 6.41905C56.3902 6.47883 56.7408 6.13055 54.8762 6.77251C54.8777 6.77226 54.8791 6.77201 54.8805 6.77176C56.7432 6.66857 59.0974 6.57354 61.1006 6.2185C59.8391 6.01882 58.915 6.34084 57.37 6.41905ZM9.15086 87.469C8.7943 87.1582 9.32578 89.0338 9.68614 89.3454C10.2522 89.8501 9.67646 87.9436 9.15086 87.469ZM96.5304 12.3078C98.2081 12.5263 96.0651 10.3028 93.1007 9.22889C92.8506 9.13205 94.5457 10.2243 93.9551 10.0741C93.8972 10.0566 92.9228 9.55131 92.6364 9.52024C92.352 9.48777 92.513 9.80615 92.0758 9.6992C91.3154 9.50792 89.83 8.53069 89.2122 8.50863C89.1326 8.50398 90.0144 9.19303 90.0703 9.23206C91.014 9.83277 92.1337 9.94696 92.291 10.0201C93.0928 10.394 92.8382 10.6061 93.0065 10.7674C93.3223 11.0716 94.0353 11.2933 94.0767 11.327C95.1315 12.1757 92.4768 10.7017 92.0512 10.6378C90.9314 10.4354 91.7456 11.08 89.2857 10.1769C89.0495 10.0897 86.3302 8.9374 89.6342 10.6901C82.6456 8.55577 92.8561 12.4074 93.8891 13.034C94.4046 13.2316 93.8096 12.5866 94.1633 12.6318C94.9772 12.733 96.14 13.3447 96.2459 12.9302C96.464 12.0475 94.6596 11.677 93.6616 11.0072C93.8601 10.8973 93.9875 10.7558 94.2818 10.7013C93.8544 10.7427 96.4181 12.2806 96.5295 12.3093C96.5298 12.3088 96.5301 12.3083 96.5304 12.3078ZM78.674 6.39213C77.0956 5.78594 77.1156 6.35142 75.6725 5.77816C74.272 6.04243 76.8762 6.4469 77.1642 6.54611C78.508 6.94551 78.3614 7.46095 79.7736 7.62878C79.3769 7.20555 79.0599 6.80315 78.674 6.39213ZM92.1674 11.3569C91.0527 11.122 92.83 11.9848 92.8728 12.074C93.4057 12.9364 88.1545 10.3096 92.1674 11.3569ZM10.8695 37.4835C10.59 37.9777 10.9915 37.7813 10.8334 38.2602C10.6711 38.7359 9.72689 40.1761 9.89901 40.2096C10.0628 40.2304 11.8012 37.6364 10.5365 40.4723C10.6652 40.4167 10.7131 40.4783 10.8106 40.4683C11.1732 39.7031 11.5595 38.9345 11.9548 38.1847C11.5016 38.4729 11.0325 38.774 10.5992 39.0666C10.6231 38.5378 10.9921 38.4187 11.0033 38.3963C11.003 38.3962 11.0028 38.3961 11.0025 38.396C11.39 37.5878 11.5061 36.3798 10.8695 37.4835ZM43.9169 9.27669C43.8374 8.59313 42.8621 9.76309 42.4005 10.0467C41.9335 10.3259 41.1535 10.3957 41.5233 10.548C42.3966 10.3783 43.9201 9.34991 43.9166 9.27589C43.9167 9.27615 43.9168 9.27642 43.9169 9.27669ZM69.7574 5.09972C68.3532 5.17253 68.5743 5.35086 66.8847 5.10114C66.9466 5.26354 67.0079 5.42954 67.0689 5.58967C68.403 5.63792 68.3326 5.1628 69.8787 5.45411C70.1301 5.50516 69.5612 5.83094 70.7106 5.80573C70.3965 5.57852 70.0756 5.33157 69.7574 5.09972ZM62.881 5.59328C64.4507 5.51542 65.7122 4.1848 62.7734 4.85796C62.3394 4.9647 61.6988 5.66608 62.881 5.59328ZM19.258 25.2843C17.4358 27.3284 19.624 25.1044 20.259 24.7301C16.2059 29.6016 20.6635 24.1146 21.6212 24.1696C22.0105 23.4863 22.7327 22.1536 21.5153 23.2168C21.0114 23.6657 21.3261 23.6276 21.2971 23.6559C20.4104 24.5173 20.2711 24.1843 19.258 25.2843ZM81.4822 7.05166C81.3806 7.03432 81.4765 7.29266 81.1506 7.25164C80.8243 7.20921 80.1504 6.87639 80.0463 6.99366C79.9435 7.10775 81.3417 7.57704 81.8023 7.60672C82.2637 7.63192 82.4017 7.21518 81.4822 7.05166ZM71.2791 4.63645C69.909 4.67373 72.044 5.69881 72.3313 5.73706C74.9053 6.00481 71.1879 4.86966 71.2791 4.63645ZM22.7571 19.7137C20.5984 22.3409 22.8837 21.1256 24.7069 20.0945C24.8518 19.8475 25.004 19.5964 25.1508 19.3536C24.5754 20.5876 23.2943 22.3681 26.6235 18.9029C24.5301 20.4943 26.1173 18.9663 26.1138 18.9317C25.688 17.9596 23.0229 20.9224 22.7593 19.7117C22.7586 19.7124 22.7578 19.7131 22.7571 19.7137ZM85.621 8.58843C86.9699 9.02516 90.448 10.3107 89.02 9.2421C87.8896 8.99091 86.7523 8.77182 85.621 8.58843ZM2.52582 69.2129C2.33921 70.4287 2.42248 71.5372 2.59737 73.0099C2.8181 71.6439 2.94741 72.513 3.0833 72.9494C3.2879 73.6098 3.10266 71.9766 3.13144 71.9721C3.47967 71.9697 3.60925 72.9992 3.41005 70.6464C3.57117 71.2211 3.7403 71.7827 3.91587 72.3464C3.76142 70.5686 3.96808 70.1212 4.18173 68.9828C3.57416 70.1081 3.90166 68.6547 3.5466 67.3439C3.36639 66.6829 2.61404 68.5952 2.52604 69.2174C2.52597 69.2159 2.52589 69.2144 2.52582 69.2129ZM20.1602 22.0508C20.0033 22.3839 19.9008 22.7256 19.771 23.0629C19.5304 23.337 19.2905 23.6126 19.0547 23.8907C18.9459 23.8525 18.8384 23.8057 18.7274 23.7762C18.3808 24.1134 18.6171 24.0729 18.5317 24.1886C18.5313 24.1882 18.5309 24.1878 18.5305 24.1874C17.3156 25.8534 16.7812 26.4831 15.529 27.5507C15.7861 27.7497 16.0432 27.9487 16.3003 28.1478C16.4941 27.8467 16.6936 27.5447 16.8935 27.2472C16.876 26.9898 16.8606 26.731 16.8465 26.4723C17.1846 26.2108 17.5223 25.9553 17.8645 25.7017C18.0319 25.4077 18.244 25.0621 18.3887 24.805C20.1588 24.1648 17.2276 26.5824 17.5154 26.8658C17.6716 27.0183 20.1153 24.186 20.3888 23.6969C20.426 23.6235 19.3694 23.7508 20.5792 22.9915C20.775 22.8727 21.8555 23.8408 22.0672 21.9633C22.1019 21.6948 20.9319 21.5614 20.1602 22.0508ZM11.2095 32.7624C13.0945 31.3849 8.2459 37.7715 10.6199 35.1691C10.5183 36.2319 10.6039 36.0617 11.4138 35.4046C11.4851 35.3472 11.2587 35.9887 11.3003 35.9465C11.9233 35.2581 12.3858 34.2707 12.7182 34.4624C12.8258 34.2442 12.9295 34.0392 13.04 33.8216C12.2013 34.4993 12.8361 32.9924 12.9291 32.2971C12.9696 31.98 12.5746 32.5142 12.6044 32.2449C12.6148 32.1439 13.1969 31.4164 13.1142 31.3155C12.9215 31.0914 12.2704 31.3603 11.5545 32.0963C11.5543 32.0961 11.554 32.096 11.5538 32.0958C11.4351 32.3185 11.3248 32.538 11.2095 32.7624ZM47.4625 5.86545C47.9645 6.26122 49.3758 5.98522 46.7988 7.02934C46.9607 7.08532 47.125 7.14018 47.285 7.19774C47.7258 7.05308 48.155 6.91723 48.6076 6.7809C49.5817 4.90679 52.5593 5.99456 50.672 5.32531C50.4661 5.2525 49.4108 5.65251 50.4075 5.07521C50.406 5.0753 50.4045 5.07537 50.4029 5.07545C48.9248 5.54653 48.7868 5.77928 47.4625 5.86545ZM37.9623 9.95905C35.2687 12.4667 42.6283 8.44627 41.2711 8.80348C41.1285 8.8067 37.9398 10.5321 37.9623 9.95905ZM65.5379 2.68429C65.486 2.68357 65.4356 2.68354 65.3867 2.68414C63.9032 2.70838 63.828 3.28176 63.9877 3.48002C64.1476 3.67988 65.1886 3.4733 65.3867 3.49344C65.3932 3.49402 65.3987 3.49483 65.4032 3.49589C65.6409 3.55222 65.5012 3.59832 65.3867 3.65017C65.2906 3.69372 65.2122 3.74122 65.3867 3.80133C65.4135 3.81057 65.4462 3.82013 65.4857 3.83007C65.6919 3.86417 68.445 4.14778 68.5661 4.14334C69.2785 4.03986 68.2723 3.50179 68.4765 3.45704C69.1486 3.30576 70.0321 3.62084 70.2418 3.37931C70.6985 2.85978 68.9739 3.31577 68.6911 3.3168C67.839 3.3015 67.9267 2.99694 67.2857 2.91377C66.6445 2.8335 66.2209 2.93339 65.6515 2.90854C65.4618 2.90056 65.6202 2.68649 65.5379 2.68429ZM60.2886 4.13131C61.9173 3.54892 57.8199 3.40985 57.3434 3.60947C55.9775 4.09359 59.5296 4.37854 60.2886 4.13131ZM15.3936 29.1012C16.0427 27.6845 13.7117 30.3838 13.2742 31.3229C13.4843 31.2312 15.1649 29.5755 15.3936 29.1012ZM23.4519 19.0865C22.4744 20.1059 24.3373 19.3844 25.2152 18.6337C25.4306 17.8291 24.9962 18.3117 24.4049 18.7982C23.8161 19.2867 24.2248 18.2982 23.4519 19.0865ZM82.7224 5.63546C82.4323 5.50063 77.5995 4.74621 80.2815 5.55732C80.4861 5.59606 83.7881 6.44198 84.0477 6.47106C84.5894 6.48564 83.4724 5.86856 82.7224 5.63546ZM28.324 14.282C27.9504 15.0576 27.3634 15.4919 28.2021 15.4735C28.2029 15.4729 28.2037 15.4723 28.2045 15.4717C26.785 16.7127 26.1192 16.002 25.8059 16.2717C24.7322 17.231 26.2328 16.9267 25.687 17.6695C27.1603 16.2007 26.9948 16.9449 28.26 16.0258C28.5416 15.8192 29.52 14.7692 29.5929 14.5075C29.6624 14.2432 28.7621 14.2216 28.324 14.282ZM89.2976 7.80994C87.8167 7.03503 86.1677 7.14584 88.2592 8.05746C89.2682 8.51333 90.192 8.28809 89.2976 7.80994ZM15.8634 105.28C15.8436 104.973 15.8209 104.66 15.7933 104.34C16.1985 104.795 16.6108 105.244 17.0286 105.685C16.6819 105.35 16.3388 105.009 15.9972 104.661C16.6542 105.594 16.7432 106.204 15.8653 105.283C15.8647 105.282 15.8641 105.281 15.8634 105.28ZM49.5527 127.379C50.0104 127.675 51.1202 127.399 51.003 127.329C50.1383 126.816 48.9211 126.972 49.5527 127.379ZM12.7817 30.0246C11.6403 31.5867 13.0837 30.9467 13.7978 30.0267C13.2539 30.5231 13.4397 29.1479 12.7817 30.0246ZM36.1247 122.173C36.0062 122.028 35.8874 121.883 35.7526 121.728C36.2377 122.101 36.3013 122.209 36.1247 122.173ZM82.1691 4.70055C81.9028 4.55002 79.8031 3.9709 79.4948 3.99405C78.8655 4.02636 80.4077 4.8512 81.3965 4.96701C81.5062 4.97801 82.434 4.84006 82.1647 4.69935C82.1662 4.69975 82.1677 4.70015 82.1691 4.70055ZM17.2647 107.488C17.2686 107.481 17.2757 107.477 17.2851 107.477C17.2779 107.48 17.2724 107.486 17.2647 107.488ZM92.1054 124.64C92.089 124.633 92.0778 124.624 92.0738 124.612C92.0831 124.621 92.097 124.629 92.1054 124.64ZM67.0345 1.76188C66.319 0.927768 64.6012 1.35939 65.9456 1.76492C66.0205 1.78533 66.8572 1.75432 67.0345 1.76188Z" fill="black"/>
<path d="M24.7535 29.1908C34.0141 18.6932 48.8696 11.547 62.969 11.2713C64.6864 11.2243 64.5754 11.4803 65.057 11.5031C65.1706 11.5098 65.2804 11.5142 65.3868 11.5166C66.5135 11.544 67.2551 11.3383 68.1283 11.3983C72.789 11.7334 77.1137 12.542 81.4539 13.9639C85.8945 15.5277 83.5206 15.534 84.9716 16.254C87.7363 17.7629 85.6364 15.8652 86.867 16.1499C90.1975 17.6451 93.3752 19.5346 96.2969 21.7013C95.517 21.2658 94.7315 20.8504 93.9302 20.4456C95.2625 21.2991 97.0173 22.7043 94.7061 21.4378C95.1518 21.8133 95.5535 22.1836 95.9997 22.5798C96.3409 22.3741 98.5838 24.0173 98.9011 24.031C99.2317 24.0265 97.9629 23.0934 97.9782 23.0893C98.2775 22.8812 102.962 27.3627 103.198 27.774C104.012 28.6949 102.95 28.2361 103.696 28.9564C104.949 30.2115 104.815 28.7547 105.544 31.3289C106.453 31.8082 106.363 32.0007 107.101 32.9606C107.198 33.0876 107.292 32.8546 107.34 32.9062C108.602 34.2613 107.409 33.3902 107.399 33.4128C107.213 33.7694 108.516 35.235 108.718 35.6007C111.29 40.1157 112.78 43.5853 114.529 48.6686C114.927 49.7562 116.068 53.1258 116.228 54.2428C116.412 55.3402 116.017 54.8171 116.013 55.4094C116.831 56.1773 117.098 57.0683 116.956 59.1904C117.522 59.9003 117.145 59.854 117.382 61.3243C117.581 62.5436 118.253 64.7065 117.759 66.0939C117.789 64.514 117.566 64.6839 117.336 62.9342C117.348 62.3401 116.526 56.2913 116.061 56.8406C115.864 57.1133 116.401 59.0512 116.356 59.1358C116.145 59.6128 115.677 58.5677 115.627 57.58C115.721 57.812 115.823 58.0955 115.917 58.3482C115.892 56.1025 114.87 57.8395 115.678 55.9809C115.773 55.7495 115.933 55.801 116.007 55.4308C115.933 55.3739 115.87 55.8192 115.769 55.468C115.668 55.111 115.793 54.359 115.531 54.312C115.156 54.2395 115.623 55.7007 115.621 55.82C115.623 55.8208 115.625 55.8216 115.628 55.8224C115.645 56.8521 115.201 54.7819 115.136 54.6935C114.773 54.1081 114.713 54.5758 114.303 53.6794C114.073 53.1676 113.751 51.7946 113.562 51.311C113.378 50.8299 113.454 51.6428 113.318 51.3233C113.182 51.0047 113.172 50.5539 113.003 50.1817C112.931 50.0226 112.757 50.0909 112.724 50.0137C112.363 49.1889 112.925 49.6166 112.626 48.855C112.434 48.3536 111.442 46.843 111.79 48.0156C111.543 47.4841 111.302 46.9702 111.045 46.4475C111.139 46.8068 111.249 47.1683 111.322 47.5229C110.994 46.4817 110.496 46.1563 110.194 45.5508C109.89 44.9468 109.969 44.2268 109.461 43.6412C108.387 42.401 110.328 45.8384 110.423 46.3341C110.474 46.5188 109.904 45.973 109.849 45.8765C109.61 45.4402 109.551 44.8183 109.371 44.4758C108.725 43.2562 108.075 42.6519 107.372 41.5559C104.997 37.8008 101.401 33.6244 98.2845 30.8554C97.1349 29.8169 96.6186 28.9787 96.0706 28.539C94.7803 27.5265 94.4485 27.6301 93.2907 26.8108C91.569 25.5902 89.131 23.8501 87.5667 23.0038C86.489 22.4057 85.365 22.1918 85.0734 22.069C81.0173 20.3052 75.8048 18.9134 72.181 18.4496C70.4824 18.2163 69.6894 17.8647 69.3334 17.8411C67.7986 17.7677 68.1912 18.0535 66.96 17.9775C66.293 17.9436 66.1698 17.6976 66.0797 17.6859C65.7774 17.6506 65.5659 17.6776 65.3868 17.7243C65.0953 17.8006 64.89 17.9283 64.5084 17.9414C60.9767 18.0681 57.5558 18.2867 54.1259 19.0697C53.8779 19.1267 53.8659 18.9824 53.7072 19.029C53.0286 19.2363 53.4028 19.3721 52.6926 19.5789C51.2205 20.0162 49.7088 20.4653 48.1757 21.0204C48.024 21.0756 47.8893 20.9291 47.5443 21.0654C47.199 21.203 47.0052 21.4689 46.4673 21.6869C45.0623 22.2596 43.6163 22.7236 42.191 23.4873C41.9547 23.6144 41.7733 23.9686 41.4261 24.1646C40.3343 24.7726 38.6569 25.6036 37.7687 26.2198C34.8318 28.2359 32.4284 30.5032 30.1369 32.9348C29.5985 33.5062 28.9825 33.8914 28.7087 34.1988C28.0968 34.8938 28.6963 34.4882 28.0961 35.2049C23.2252 41.0757 19.6555 48.1052 18.0208 55.6681C17.3582 58.6372 17.1433 62.337 17.0561 65.2591C17.0436 65.6043 17.0161 65.8702 16.9817 66.0939C16.8957 66.6604 16.7607 66.9538 16.7764 67.5747C16.8304 69.112 17.1908 69.3848 17.374 70.981C17.5283 72.2639 17.3957 73.7759 17.6681 75.1043C17.9445 76.4228 18.4024 76.9647 18.8252 78.4379C19.1754 79.6547 19.557 81.3913 20.0596 82.6781C24.6269 94.5066 33.6828 104.178 45.0911 109.772C49.1218 111.766 53.9295 113.169 58.5053 114.133C58.9361 114.222 58.2218 114.461 59.6365 114.568C60.4036 114.618 61.4729 114.46 63.2211 114.527C63.9359 114.553 64.6579 114.566 65.3868 114.567C75.1087 114.644 85.5736 111.897 93.6106 106.002C106.968 96.32 111.959 80.1489 115.147 66.4799C115.315 65.7854 116.123 66.1585 116.349 66.5896C116.181 66.9834 115.979 67.3423 115.78 67.7435C116.766 68.292 116.534 68.1979 116.307 70.1178C116.152 71.2947 116.663 70.3874 116.728 71.0317C116.851 71.8684 116.74 75.8235 116.19 74.9645C116.263 75.222 116.332 75.4614 116.4 75.7143C115.977 78.5186 115.407 81.2293 114.636 83.9251C114.503 84.3895 114.691 84.4851 114.543 84.9661C114.143 86.2569 113.596 87.1908 113.028 88.4542C112.716 89.1377 112.89 89.3423 112.426 90.2193C111.953 91.0924 111.684 90.9145 111.331 92.2661C112.139 91.7092 109.889 94.9683 109.081 96.1077C108.974 96.2779 108.307 97.8576 107.722 98.5381C107.143 99.2254 106.116 100.13 105.304 101.251C104.923 101.776 104.87 102.262 104.401 102.787C104.07 103.155 103.475 103.404 103.027 103.835C102.584 104.27 101.747 105.349 101.563 105.517C100.912 106.129 101.52 105.333 101.062 105.736C98.8518 107.686 96.0657 109.664 93.6684 111.297C93.3733 111.499 93.9047 111.416 93.8684 111.447C91.9295 112.943 92.8908 112.024 92.2338 112.198C91.6197 112.407 87.5484 114.587 87.644 114.898C87.3242 114.54 86.5257 115.279 86.2796 115.395C85.3348 115.846 85.3763 115.399 84.481 115.881C84.15 116.055 84.9229 116.048 84.5463 116.184C83.6083 116.519 82.6349 116.41 81.3767 116.764C81.0715 116.848 81.0328 117.064 80.4919 117.218C79.9531 117.385 77.6091 117.742 78.7637 117.865C77.2985 117.896 77.0586 118.14 75.4248 118.453C75.0093 118.529 74.4248 118.323 73.5552 118.555C73.2613 118.633 73.3155 118.929 72.8631 118.995C71.828 119.145 70.8094 118.952 69.4991 119.042C68.1605 119.132 66.7936 119.244 65.3868 119.288C64.1921 119.324 63.0089 119.312 61.8212 119.198C61.1224 119.127 61.3183 118.844 60.3129 118.747C60.17 118.736 58.9166 118.867 58.2233 118.744C57.8057 118.685 55.6679 118.149 55.245 118.04C54.5383 117.877 54.3476 118.131 53.9672 117.991C52.8711 117.574 53.8782 117.373 52.3888 117.613C52.0256 117.188 51.2318 117.007 51.0934 116.55C50.5201 116.843 50.0575 116.271 49.1454 116.131C48.2372 115.991 47.2376 116.531 47.3419 115.597C46.901 115.564 45.134 115.07 44.8477 114.956C43.9961 114.635 44.5425 114.595 43.9034 114.351C43.7916 114.306 43.8344 114.519 43.1383 114.18C42.6679 113.989 39.3709 112.259 39.2051 112.101C37.1539 110.596 40.4813 112.651 41.0635 112.708C41.1258 112.796 41.1875 112.883 41.2566 112.973C42.2145 113.552 41.8207 112.916 41.4175 112.607C41.0135 112.299 40.1069 112.006 39.8059 111.687C39.657 111.529 39.9981 111.187 40.515 111.537C40.0022 111.089 40.8703 111.394 40.7055 111.148C40.5113 110.898 38.0013 109.347 37.8575 109.539C38.3209 109.844 38.9152 110.197 39.3934 110.489C39.8208 111.253 37.0419 111.439 35.6341 109.724C34.645 108.486 36.8658 109.668 33.7688 107.86C34.1961 108.206 34.5456 108.514 34.9415 108.82C34.7887 109.125 34.345 108.351 33.9486 108.186C33.7542 108.107 34.6127 109.04 33.6968 108.459C33.2447 107.514 32.3837 107.469 31.1804 106.463C31.5672 106.679 31.956 106.889 32.3461 107.094C30.5447 105.17 35.2975 108.914 31.5195 105.549C31.9903 105.933 32.4529 106.322 32.9439 106.684C32.8245 106.362 33.5148 106.252 33.3791 106.003C33.0266 105.354 32.1452 104.841 31.5397 104.268C31.275 104.018 31.5367 104.064 31.5144 104.043C31.1552 103.7 31.0991 103.925 30.7676 103.639C30.3454 103.281 29.3482 102.029 29.1566 101.858C28.6477 101.424 29.1394 102.499 29.0754 102.475C28.6317 102.312 28.1398 101.567 27.9872 101.777C29.5177 103.227 33.9899 107.412 29.5739 104.023C30.4208 105.366 29.7006 105.522 28.0485 103.982C26.7078 102.691 27.7153 103.381 27.2259 102.516C27.1512 102.412 25.5837 100.505 25.377 100.515C25.7493 100.322 25.5109 99.4834 26.1767 99.613C26.2725 99.6332 26.9067 100.394 26.934 99.9101C26.9473 99.668 26.9086 99.0549 27.1253 98.9733C26.8806 98.9205 26.6154 98.8708 26.3632 98.8154C25.3909 97.7141 25.3967 97.4383 25.1345 96.6362C25.0622 96.7347 25.1192 97.628 24.5572 96.6372C24.5301 96.5853 24.6396 96.44 24.3744 95.9284C23.8426 94.8904 23.7627 94.6671 24.6894 95.0796C23.0969 93.3158 23.3073 92.5709 21.9607 90.5843C21.619 91.3261 22.1658 92.0129 23.4897 93.7958C23.4102 93.964 23.3041 94.0891 23.2261 94.2618C21.9093 91.5679 22.6824 92.8322 21.5338 91.5515C21.2459 91.2407 20.2734 89.2566 20.2252 90.1174C20.2088 90.323 20.8935 91.5279 20.6727 91.4708C20.6244 91.4636 19.7419 90.0193 19.7177 89.864C19.3698 87.9536 21.0934 90.786 18.7875 86.2628C18.7267 86.1366 18.5278 86.1685 18.3955 85.9257C18.1493 85.4697 18.3561 85.3778 18.1361 84.9712C17.9175 84.5658 17.4004 84.0708 17.4301 83.3226C17.4901 81.97 18.7485 84.652 19.0392 85.9519C19.6834 86.226 16.7275 77.4365 16.7625 76.8275C15.9946 74.4118 17.0089 78.4875 16.9205 78.7323C16.8687 78.8368 15.8894 79.055 16.8013 79.9217C17.0694 80.1731 16.9585 78.8349 17.2701 79.5644C17.585 80.2897 17.2206 80.0718 17.2161 80.1324C17.202 80.3414 17.5493 81.1082 17.5445 81.225C17.4727 83.0179 16.4974 83.1703 17.1711 80.6098C16.586 79.767 16.7516 82.0618 16.1905 80.9585C15.5072 79.6006 15.6923 78.4161 15.6681 78.2356C15.4027 75.9986 15.3073 78.6715 14.9523 75.9364C14.7851 74.4195 15.8022 78.0852 15.1282 74.6856C14.6446 71.8231 14.6649 73.4008 14.1099 73.2664C13.9823 73.2344 13.613 71.649 13.9693 73.8253C14.1133 73.8668 14.3082 73.9549 14.454 74.0738C14.4357 74.6188 13.9221 75.6275 13.9547 75.9182C14.1149 77.3268 14.4569 77.1856 14.2346 78.0924C14.5448 77.4084 14.4941 78.4159 14.6775 78.7443C15.365 79.9588 15.0044 78.2214 15.3996 81.2494C15.4904 80.8107 15.5932 80.4119 15.6969 79.9911C15.8005 80.3346 15.9077 80.6767 16.0181 81.017C15.7135 81.6621 16.3799 83.4868 15.3853 81.9667C15.9041 84.0196 16.336 84.7773 16.8389 85.0729C16.9358 85.1287 17.0765 85.4111 17.2223 85.7499C17.2912 85.6461 17.5531 85.4444 17.6109 85.4831C18.1198 85.8279 17.8911 86.7933 17.5754 86.6329C17.6677 86.8749 17.7388 87.0673 17.763 87.1356C17.9168 87.5695 17.3652 86.8287 17.4514 87.1979C17.4766 87.3221 18.0585 88.4822 17.9973 88.5388C17.6001 88.9052 16.9538 86.819 18.6291 90.8204C19.0989 90.687 18.1017 88.9582 18.7959 89.185C19.5295 89.4238 19.3866 90.7476 20.1033 90.6364C20.0478 90.7685 19.985 90.8481 19.9107 90.9774C21.003 92.3314 20.5417 92.6227 20.7048 93.1438C20.9994 94.1756 23.7005 98.0493 21.7439 94.2687C22.1196 94.7594 22.489 95.268 22.8753 95.7452C22.1355 96.4346 22.197 95.9296 23.8829 98.3998C24.2607 98.9377 24.0513 99.3899 24.8719 99.5524C24.4087 99.8209 25.9216 101.109 26.0013 101.279C26.4746 102.455 23.1432 99.4871 23.5633 98.448C22.8306 98.0825 23.2074 97.7974 22.6731 97.1761C21.9094 96.2702 21.7294 96.1801 21.2492 94.8186C20.0326 93.9502 24.1724 99.4085 21.25 96.383C17.7959 94.1225 9.75846 74.4959 10.7793 66.0939C10.766 65.2775 10.7726 64.5929 10.7828 64.0671C11.2431 53.6063 12.898 48.0042 17.266 39.6374C17.6142 38.7544 21.5124 32.8688 21.171 34.43C21.1008 34.6447 19.6037 37.2289 21.4134 35.376C20.8979 35.6501 21.6241 34.3224 21.6814 34.2059C22.9441 31.5196 21.7175 32.6847 24.7535 29.1908ZM37.9534 24.5069C33.3781 27.5471 36.9017 25.5396 36.4841 26.8874C37.0395 26.4803 37.6018 26.086 38.1745 25.7023C37.9943 25.7589 37.8161 25.8156 37.6361 25.8746C37.6354 25.875 37.6348 25.8755 37.6341 25.8759C37.7326 25.4207 37.8404 24.9633 37.9534 24.5069ZM111.612 49.0883C111.432 48.9283 111.253 48.7726 111.068 48.5993C110.845 47.9209 110.61 47.254 110.357 46.5838C110.462 46.6314 110.566 46.6764 110.67 46.725C111.001 47.5056 111.309 48.2906 111.612 49.0883ZM19.4648 86.6133C19.61 87.6896 20.0705 87.3667 20.4532 88.7122C20.7467 88.375 21.0266 88.0287 21.318 87.6922C20.8168 86.799 20.5741 86.6533 20.2192 85.5908C20.1485 85.7627 20.0793 85.9385 20.0085 86.1095C20.1102 86.2691 20.2212 86.4371 20.3191 86.591C20.0976 87.0132 19.3118 85.3796 19.4625 86.6104C19.4633 86.6114 19.464 86.6124 19.4648 86.6133ZM24.9288 95.6805C25.2007 96.1663 26.4101 98.0301 26.7442 98.1451C27.8022 98.5763 23.7194 93.9588 26.9202 97.2097C26.9706 97.1423 27.0457 97.108 27.1085 97.0572C26.6147 96.4021 26.1348 95.7384 25.6671 95.0594C25.4335 95.2849 25.1596 95.4484 24.9288 95.6805ZM23.9914 38.4373C23.4396 39.0983 21.6488 42.7256 22.6301 41.771C22.9042 41.4916 23.3751 39.6869 23.7776 39.1262C24.0325 38.7644 23.9996 39.3346 24.3935 38.5528C24.2664 38.5136 24.136 38.4546 23.9908 38.4398C23.991 38.4389 23.9912 38.4381 23.9914 38.4373ZM23.5316 36.1507C23.0451 36.9177 22.5842 37.7143 22.1406 38.51C22.77 38.1269 23.3273 36.9363 23.7534 37.1397C23.6415 37.3618 23.5327 37.582 23.4242 37.8053C23.2352 37.9043 23.048 38.0023 22.8611 38.1018C22.6501 38.889 23.0012 38.5553 22.1825 39.7365C23.2446 39.3647 23.5905 39.4408 24.401 37.0404C24.451 37.6335 25.6892 37.996 25.768 36.4107C25.7858 36.1111 25.0748 36.8844 25.0483 36.8808C24.6896 36.8214 24.8673 36.2259 24.5171 36.1851C24.3578 36.1659 23.9788 36.6951 23.7658 36.6643C23.6618 36.6472 23.8077 35.9827 23.5316 36.1507ZM25.9144 35.7066C25.9065 36.0402 26.834 35.5941 27.2647 34.9219C27.9461 33.8679 26.3432 35.0979 25.9144 35.7066ZM111.614 49.0925C111.613 49.0911 111.612 49.0897 111.612 49.0883C111.612 49.0888 111.613 49.0894 111.614 49.09C111.614 49.0909 111.614 49.0917 111.614 49.0925ZM23.4934 93.1982C23.9856 93.6548 24.5111 94.4589 24.6899 94.2485C24.8261 94.5367 24.968 94.8264 25.1101 95.1126C25.1732 95.0634 25.2348 95.0117 25.2972 94.963C24.7851 94.168 24.2981 93.3615 23.8346 92.5408C23.7178 92.7554 23.5965 92.9639 23.4934 93.1982ZM29.8754 101.402C30.7095 102.269 30.2483 101.301 30.5584 101.363C30.8645 101.424 31.5323 102.257 31.6149 101.988C31.1138 101.503 30.6019 100.987 30.1158 100.475C30.0505 100.799 29.9445 101.087 29.8771 101.404C29.8765 101.403 29.8759 101.402 29.8754 101.402ZM58.791 16.9993C57.9833 17.0347 58.2635 16.6999 56.7384 17.2847C56.7396 17.2844 56.7408 17.2842 56.7419 17.284C58.282 17.2386 60.2186 17.1965 61.8624 16.8657C60.8209 16.65 60.0643 16.9566 58.791 16.9993ZM19.1312 83.6755C18.8014 83.4331 19.2091 84.9896 19.539 85.2323C20.0582 85.6245 19.6185 84.0445 19.1312 83.6755ZM91.1809 21.5466C92.6314 21.6292 90.9149 19.6711 88.4235 18.8263C88.2137 18.7502 89.6058 19.6901 89.105 19.5851C89.0559 19.5725 88.2481 19.1505 88.0035 19.1391C87.7605 19.1265 87.878 19.4241 87.5088 19.3496C86.8673 19.216 85.6565 18.3596 85.1304 18.3744C85.0628 18.375 85.7736 18.9918 85.8189 19.0258C86.5874 19.5507 87.5418 19.5856 87.6725 19.646C88.3378 19.9537 88.1041 20.1753 88.2379 20.3196C88.4889 20.5916 89.089 20.7547 89.1226 20.7841C89.9736 21.526 87.7846 20.2957 87.4248 20.2598C86.478 20.1382 87.1294 20.7127 85.0896 19.9945C84.8933 19.9249 82.6549 18.973 85.3535 20.471C79.5571 18.8295 87.9729 21.9469 88.8368 22.4389C89.267 22.5904 88.8011 22.0152 89.1031 22.0325C89.7984 22.0705 90.7627 22.5676 90.8865 22.1632C91.1423 21.3033 89.5998 21.0815 88.7864 20.5054C88.9656 20.3855 89.0856 20.2402 89.3442 20.167C88.9707 20.2393 91.0837 21.5316 91.1801 21.5481C91.1804 21.5476 91.1807 21.5471 91.1809 21.5466ZM76.3548 16.8135C75.0609 16.2682 75.0593 16.829 73.8782 16.302C72.7089 16.6051 74.8569 16.9328 75.0931 17.0193C76.1965 17.3699 76.0546 17.8865 77.2228 17.9961C76.9098 17.5933 76.6614 17.2069 76.3548 16.8135ZM87.4753 20.947C86.535 20.7971 88.0003 21.5075 88.0311 21.5893C88.4248 22.388 84.1106 20.2083 87.4753 20.947ZM20.3229 42.4447C20.0891 42.8517 20.4618 42.7108 20.3434 43.1124C20.2218 43.5112 19.4064 44.6833 19.5746 44.7232C19.7366 44.7514 21.2368 42.6478 20.2097 44.991C20.3306 44.9522 20.3811 45.0081 20.4748 45.0063C20.7736 44.3768 21.0921 43.7446 21.4178 43.1278C21.0028 43.343 20.5721 43.5686 20.1739 43.7901C20.1603 43.337 20.5076 43.2601 20.5168 43.2417C20.5165 43.2416 20.5163 43.2415 20.516 43.2413C20.8321 42.5734 20.8555 41.5359 20.3229 42.4447ZM47.6911 19.2643C47.5842 18.5915 46.8259 19.6782 46.452 19.925C46.073 20.1683 45.4134 20.1859 45.7379 20.3577C46.4701 20.2503 47.6977 19.3371 47.6908 19.2635C47.6909 19.2638 47.691 19.264 47.6911 19.2643ZM68.9947 15.7469C67.8336 15.8351 68.0157 16.0125 66.6227 15.772C66.6732 15.9341 66.723 16.0998 66.7724 16.2596C67.871 16.3 67.8175 15.8264 69.0904 16.0994C69.2973 16.147 68.8236 16.4809 69.772 16.439C69.5163 16.2169 69.2548 15.9746 68.9947 15.7469ZM63.3226 16.2583C64.614 16.1899 65.6542 14.8643 63.2285 15.5224C62.8702 15.6259 62.349 16.3216 63.3226 16.2583ZM27.2527 32.3571C25.7413 34.0427 27.5781 32.2276 28.1277 31.9425C24.8022 35.9832 28.4562 31.4264 29.3293 31.5534C29.6255 30.9678 30.1689 29.8135 29.149 30.6775C28.7268 31.0425 29.0116 31.0349 28.9875 31.0581C28.2493 31.7633 28.0928 31.45 27.2527 32.3571ZM78.6743 17.3525C78.5899 17.3398 78.6587 17.5909 78.3879 17.5647C78.117 17.5372 77.5678 17.236 77.4761 17.3562C77.3858 17.474 78.533 17.879 78.9174 17.8863C79.3024 17.8898 79.4376 17.473 78.6743 17.3525ZM70.2604 15.2625C69.1257 15.3212 70.876 16.3114 71.1114 16.3421C73.2351 16.5554 70.183 15.5008 70.2604 15.2625ZM29.9804 27.5725C28.2366 29.806 30.2231 28.8838 31.7783 28.0904C31.8877 27.8748 32.0033 27.6556 32.1148 27.4432C31.7001 28.5345 30.7068 30.072 33.399 27.1512C31.6569 28.4476 32.9504 27.1672 32.9444 27.1343C32.4829 26.198 30.3274 28.7116 29.9822 27.5708C29.9816 27.5714 29.981 27.572 29.9804 27.5725ZM82.0772 18.6601C83.1892 19.0194 86.0716 20.0528 84.9217 19.101C83.9739 18.9258 83.0221 18.7779 82.0772 18.6601ZM13.187 68.6838C12.9901 69.6955 13.0601 70.6176 13.2082 71.841C13.4521 70.6998 13.5666 71.4215 13.6942 71.7817C13.8864 72.3271 13.731 70.9727 13.759 70.9686C14.1059 70.9613 14.2223 71.8129 14.0559 69.8644C14.2098 70.339 14.3704 70.802 14.536 71.2662C14.4109 69.7952 14.6203 69.422 14.8442 68.4796C14.2265 69.4152 14.5695 68.2111 14.2185 67.1282C14.0408 66.5809 13.2817 68.1686 13.1872 68.6875C13.1871 68.6863 13.1871 68.6851 13.187 68.6838ZM27.8073 29.4978C27.6915 29.7887 27.6263 30.0915 27.5356 30.3874C27.3375 30.6164 27.1399 30.8463 26.9459 31.0786C26.8423 31.0347 26.7391 30.9832 26.6341 30.9471C26.3423 31.2236 26.5572 31.2067 26.4881 31.3043C26.4877 31.304 26.4872 31.3036 26.4868 31.3032C25.5032 32.7084 25.0583 33.2267 23.9743 34.0793C24.2314 34.2783 24.4885 34.4773 24.7456 34.6764C24.9019 34.4238 25.063 34.1705 25.2245 33.9209C25.1866 33.689 25.1506 33.4556 25.1158 33.2221C25.409 33.0156 25.7016 32.8142 25.9978 32.6147C26.1284 32.364 26.2957 32.07 26.4079 31.85C27.9911 31.4228 25.4836 33.3553 25.7718 33.6315C25.9337 33.7838 27.9523 31.4414 28.1578 31.0167C28.1855 30.953 27.2257 30.9788 28.2718 30.3914C28.4416 30.2989 29.5147 31.2781 29.5446 29.5807C29.5532 29.3375 28.4747 29.1156 27.8073 29.4978ZM20.3021 38.3562C22.0038 37.2938 17.8304 42.5163 19.9162 40.4182C19.8956 41.3364 19.9666 41.1933 20.6944 40.6815C20.7585 40.637 20.5888 41.178 20.6255 41.1443C21.1727 40.5926 21.5385 39.7662 21.8702 39.959C21.956 39.7769 22.039 39.6058 22.1273 39.4241C21.3805 39.9518 21.8697 38.6839 21.9033 38.0787C21.917 37.803 21.5834 38.2422 21.5908 38.0076C21.5931 37.9198 22.0886 37.3243 22.0021 37.2287C21.8018 37.0157 21.2066 37.2027 20.5808 37.7964C20.5805 37.7963 20.5803 37.7961 20.58 37.796C20.4839 37.983 20.3953 38.1677 20.3021 38.3562ZM50.508 16.0987C50.9505 16.5113 52.1241 16.3079 50.004 17.2138C50.1432 17.2769 50.2843 17.339 50.4217 17.4034C50.7857 17.2824 51.1401 17.1686 51.514 17.0545C52.2513 15.2497 54.7928 16.4365 53.1848 15.7019C53.0093 15.622 52.139 15.9756 52.953 15.4438C52.9517 15.4439 52.9505 15.4439 52.9492 15.4439C51.726 15.8512 51.621 16.0741 50.508 16.0987ZM42.6489 19.5519C40.5029 21.7956 46.5543 18.395 45.4134 18.644C45.293 18.6428 42.6702 20.1077 42.6489 19.5519ZM65.5125 13.3583C65.4693 13.3576 65.4274 13.3575 65.3868 13.3582C64.1527 13.3814 64.093 13.952 64.2263 14.1514C64.3596 14.3522 65.2223 14.1477 65.3868 14.1674C65.3921 14.168 65.3967 14.1688 65.4005 14.1699C65.5976 14.2262 65.4817 14.2723 65.3868 14.3242C65.3071 14.3677 65.2422 14.4152 65.3868 14.4753C65.409 14.4846 65.4361 14.4941 65.4688 14.5041C65.6401 14.5407 67.9189 14.8116 68.0191 14.8036C68.6104 14.6938 67.7811 14.1649 67.9506 14.1183C68.5101 13.9619 69.2405 14.2662 69.4178 14.022C69.8043 13.4975 68.3642 13.9738 68.13 13.9763C67.4224 13.968 67.4974 13.6627 66.965 13.5831C66.4323 13.5059 66.0799 13.6068 65.6068 13.5825C65.4491 13.5746 65.5809 13.3604 65.5125 13.3583ZM61.164 14.7699C62.5093 14.2112 59.1016 14.0138 58.7065 14.1973C57.5809 14.6511 60.5401 15.0108 61.164 14.7699ZM23.9746 35.4507C24.4687 34.243 22.4993 36.4558 22.1542 37.2478C22.348 37.1838 23.8009 35.8544 23.9746 35.4507ZM30.5577 27.0518C29.7575 27.9107 31.3866 27.4036 32.1115 26.7812C32.2373 26.0519 31.8877 26.4642 31.3951 26.8653C30.9043 27.268 31.1907 26.3872 30.5577 27.0518ZM79.7795 15.8986C79.5376 15.7851 75.5132 15.2248 77.7307 15.9246C77.8997 15.9587 80.6394 16.6483 80.8586 16.6605C81.3156 16.6484 80.4016 16.0957 79.7795 15.8986ZM34.5345 22.9643C34.2639 23.6662 33.7764 24.0256 34.5217 24.0766C34.5224 24.0761 34.523 24.0756 34.5237 24.0751C33.3613 25.1248 32.7044 24.4024 32.4457 24.6297C31.5602 25.4377 32.8828 25.2771 32.4545 25.9244C33.6537 24.6768 33.5669 25.3577 34.6182 24.6003C34.852 24.4301 35.6348 23.5202 35.6784 23.2781C35.7191 23.0338 34.9197 22.9421 34.5345 22.9643ZM85.2453 17.6879C84.0242 17.0189 82.6173 17.2181 84.3445 17.9907C85.1769 18.3766 85.9819 18.1 85.2453 17.6879ZM24.2344 98.6569C24.2412 98.3828 24.2457 98.105 24.2463 97.8213C24.5881 98.1944 24.9359 98.5618 25.288 98.9232C24.9932 98.6511 24.7013 98.3741 24.4106 98.0912C24.9473 98.8716 24.9798 99.413 24.236 98.6588C24.2355 98.6582 24.2349 98.6575 24.2344 98.6569ZM52.2237 117.042C52.5975 117.315 53.5406 117.001 53.4446 116.935C52.7391 116.46 51.709 116.665 52.2237 117.042ZM21.5861 36.0611C20.6255 37.3551 21.9463 36.9005 22.5468 36.1432C22.0722 36.54 22.1396 35.3354 21.5861 36.0611ZM41.0635 112.708C40.9708 112.576 40.8778 112.445 40.7717 112.305C41.1665 112.63 41.2142 112.73 41.0635 112.708ZM79.3538 14.9993C79.1352 14.8635 77.389 14.3726 77.1294 14.4051C76.5999 14.4599 77.8642 15.2228 78.6914 15.2952C78.783 15.3018 79.5711 15.126 79.3501 14.9983C79.3513 14.9987 79.3526 14.999 79.3538 14.9993ZM25.357 100.528C25.3613 100.52 25.3682 100.516 25.377 100.515C25.37 100.519 25.3644 100.524 25.357 100.528ZM87.673 114.927C87.6584 114.919 87.6481 114.91 87.644 114.898C87.6526 114.907 87.6651 114.916 87.673 114.927ZM66.7611 12.4325C66.1668 11.6022 64.7309 12.0338 65.8528 12.4385C65.9153 12.4591 66.6132 12.4259 66.7611 12.4325Z" fill="black"/>
</svg>
